<?xml version="1.0" encoding="UTF-8"?>
<!--Generator: Apple Native CoreSVG 149-->
<!DOCTYPE svg
PUBLIC "-//W3C//DTD SVG 1.1//EN"
       "http://www.w3.org/Graphics/SVG/1.1/DTD/svg11.dtd">
<svg version="1.1" xmlns="http://www.w3.org/2000/svg" xmlns:xlink="http://www.w3.org/1999/xlink" width="3300" height="2200">
 <!--glyph: "uni1001BE.medium", point size: 100.000000, font version: "Version 16.0d18e1", template writer version: "8"-->
 <g id="Notes">
  <rect height="2200" id="artboard" style="fill:white;opacity:1" width="3300" x="0" y="0"/>
  <line id="" style="fill:none;stroke:black;opacity:1;stroke-width:0.5;" x1="263" x2="3036" y1="292" y2="292"/>
  <text style="stroke:none;fill:black;font-family:-apple-system,&quot;SF Pro Display&quot;,&quot;SF Pro Text&quot;,Helvetica,sans-serif;font-weight:bold;" transform="matrix(1 0 0 1 263 322)">Weight/Scale Variations</text>
  <text style="stroke:none;fill:black;font-family:-apple-system,&quot;SF Pro Display&quot;,&quot;SF Pro Text&quot;,Helvetica,sans-serif;text-anchor:middle;" transform="matrix(1 0 0 1 559.711 322)">Ultralight</text>
  <text style="stroke:none;fill:black;font-family:-apple-system,&quot;SF Pro Display&quot;,&quot;SF Pro Text&quot;,Helvetica,sans-serif;text-anchor:middle;" transform="matrix(1 0 0 1 856.422 322)">Thin</text>
  <text style="stroke:none;fill:black;font-family:-apple-system,&quot;SF Pro Display&quot;,&quot;SF Pro Text&quot;,Helvetica,sans-serif;text-anchor:middle;" transform="matrix(1 0 0 1 1153.13 322)">Light</text>
  <text style="stroke:none;fill:black;font-family:-apple-system,&quot;SF Pro Display&quot;,&quot;SF Pro Text&quot;,Helvetica,sans-serif;text-anchor:middle;" transform="matrix(1 0 0 1 1449.84 322)">Regular</text>
  <text style="stroke:none;fill:black;font-family:-apple-system,&quot;SF Pro Display&quot;,&quot;SF Pro Text&quot;,Helvetica,sans-serif;text-anchor:middle;" transform="matrix(1 0 0 1 1746.56 322)">Medium</text>
  <text style="stroke:none;fill:black;font-family:-apple-system,&quot;SF Pro Display&quot;,&quot;SF Pro Text&quot;,Helvetica,sans-serif;text-anchor:middle;" transform="matrix(1 0 0 1 2043.27 322)">Semibold</text>
  <text style="stroke:none;fill:black;font-family:-apple-system,&quot;SF Pro Display&quot;,&quot;SF Pro Text&quot;,Helvetica,sans-serif;text-anchor:middle;" transform="matrix(1 0 0 1 2339.98 322)">Bold</text>
  <text style="stroke:none;fill:black;font-family:-apple-system,&quot;SF Pro Display&quot;,&quot;SF Pro Text&quot;,Helvetica,sans-serif;text-anchor:middle;" transform="matrix(1 0 0 1 2636.69 322)">Heavy</text>
  <text style="stroke:none;fill:black;font-family:-apple-system,&quot;SF Pro Display&quot;,&quot;SF Pro Text&quot;,Helvetica,sans-serif;text-anchor:middle;" transform="matrix(1 0 0 1 2933.4 322)">Black</text>
  <line id="" style="fill:none;stroke:black;opacity:1;stroke-width:0.5;" x1="263" x2="3036" y1="1903" y2="1903"/>
  <g id="" transform="matrix(1 0 0 1 263 1933)">
   <path d="M9.24805 0.830078C13.5547 0.830078 17.1387-2.74414 17.1387-7.05078C17.1387-11.3574 13.5449-14.9316 9.23828-14.9316C4.94141-14.9316 1.36719-11.3574 1.36719-7.05078C1.36719-2.74414 4.95117 0.830078 9.24805 0.830078ZM9.24805-0.654297C5.70312-0.654297 2.87109-3.49609 2.87109-7.05078C2.87109-10.6055 5.69336-13.4473 9.23828-13.4473C12.793-13.4473 15.6348-10.6055 15.6445-7.05078C15.6543-3.49609 12.8027-0.654297 9.24805-0.654297ZM6.39648-6.31836L8.50586-6.31836L8.50586-4.19922C8.50586-3.75977 8.79883-3.45703 9.22852-3.45703C9.67773-3.45703 9.9707-3.75977 9.9707-4.19922L9.9707-6.31836L12.0996-6.31836C12.5391-6.31836 12.8418-6.61133 12.8418-7.04102C12.8418-7.48047 12.5391-7.7832 12.0996-7.7832L9.9707-7.7832L9.9707-9.89258C9.9707-10.3418 9.67773-10.6445 9.22852-10.6445C8.79883-10.6445 8.50586-10.3418 8.50586-9.89258L8.50586-7.7832L6.39648-7.7832C5.94727-7.7832 5.64453-7.48047 5.64453-7.04102C5.64453-6.61133 5.94727-6.31836 6.39648-6.31836Z"/>
  </g>
  <g id="" transform="matrix(1 0 0 1 281.506 1933)">
   <path d="M11.709 2.91016C17.1582 2.91016 21.6699-1.61133 21.6699-7.05078C21.6699-12.5 17.1484-17.0117 11.6992-17.0117C6.25977-17.0117 1.74805-12.5 1.74805-7.05078C1.74805-1.61133 6.26953 2.91016 11.709 2.91016ZM11.709 1.25C7.09961 1.25 3.41797-2.44141 3.41797-7.05078C3.41797-11.6602 7.08984-15.3516 11.6992-15.3516C16.3086-15.3516 20-11.6602 20.0098-7.05078C20.0195-2.44141 16.3184 1.25 11.709 1.25ZM7.98828-6.23047L10.8789-6.23047L10.8789-3.32031C10.8789-2.83203 11.2109-2.5 11.6895-2.5C12.1777-2.5 12.5195-2.83203 12.5195-3.32031L12.5195-6.23047L15.4297-6.23047C15.918-6.23047 16.25-6.5625 16.25-7.04102C16.25-7.5293 15.918-7.87109 15.4297-7.87109L12.5195-7.87109L12.5195-10.7617C12.5195-11.2695 12.1777-11.6016 11.6895-11.6016C11.2109-11.6016 10.8789-11.2598 10.8789-10.7617L10.8789-7.87109L7.98828-7.87109C7.48047-7.87109 7.14844-7.5293 7.14844-7.04102C7.14844-6.5625 7.49023-6.23047 7.98828-6.23047Z"/>
  </g>
  <g id="" transform="matrix(1 0 0 1 304.924 1933)">
   <path d="M14.9707 5.66406C21.9336 5.66406 27.6953-0.0976562 27.6953-7.05078C27.6953-14.0137 21.9238-19.7754 14.9609-19.7754C8.00781-19.7754 2.25586-14.0137 2.25586-7.05078C2.25586-0.0976562 8.01758 5.66406 14.9707 5.66406ZM14.9707 3.84766C8.93555 3.84766 4.08203-1.01562 4.08203-7.05078C4.08203-13.0957 8.92578-17.9492 14.9609-17.9492C21.0059-17.9492 25.8594-13.0957 25.8691-7.05078C25.8789-1.01562 21.0156 3.84766 14.9707 3.84766ZM10.0586-6.14258L14.0625-6.14258L14.0625-2.12891C14.0625-1.5918 14.4336-1.2207 14.9512-1.2207C15.4883-1.2207 15.8594-1.5918 15.8594-2.12891L15.8594-6.14258L19.8828-6.14258C20.4102-6.14258 20.791-6.51367 20.791-7.03125C20.791-7.56836 20.4199-7.94922 19.8828-7.94922L15.8594-7.94922L15.8594-11.9531C15.8594-12.5098 15.4883-12.8809 14.9512-12.8809C14.4336-12.8809 14.0625-12.5 14.0625-11.9531L14.0625-7.94922L10.0586-7.94922C9.50195-7.94922 9.13086-7.56836 9.13086-7.03125C9.13086-6.51367 9.51172-6.14258 10.0586-6.14258Z"/>
  </g>
  <text style="stroke:none;fill:black;font-family:-apple-system,&quot;SF Pro Display&quot;,&quot;SF Pro Text&quot;,Helvetica,sans-serif;font-weight:bold;" transform="matrix(1 0 0 1 263 1953)">Design Variations</text>
  <text style="stroke:none;fill:black;font-family:-apple-system,&quot;SF Pro Display&quot;,&quot;SF Pro Text&quot;,Helvetica,sans-serif;" transform="matrix(1 0 0 1 263 1971)">Symbols are supported in up to nine weights and three scales.</text>
  <text style="stroke:none;fill:black;font-family:-apple-system,&quot;SF Pro Display&quot;,&quot;SF Pro Text&quot;,Helvetica,sans-serif;" transform="matrix(1 0 0 1 263 1989)">For optimal layout with text and other symbols, vertically align</text>
  <text style="stroke:none;fill:black;font-family:-apple-system,&quot;SF Pro Display&quot;,&quot;SF Pro Text&quot;,Helvetica,sans-serif;" transform="matrix(1 0 0 1 263 2007)">symbols with the adjacent text.</text>
  <line id="" style="fill:none;stroke:#00AEEF;stroke-width:0.5;opacity:1.0;" x1="776" x2="776" y1="1919" y2="1933"/>
  <g id="" transform="matrix(1 0 0 1 776 1933)">
   <path d="M3.31055 0.126953C3.82812 0.126953 4.08203-0.0683594 4.26758-0.605469L5.52734-4.0625L11.2891-4.0625L12.5488-0.605469C12.7344-0.0683594 12.9883 0.126953 13.4961 0.126953C14.0137 0.126953 14.3457-0.185547 14.3457-0.673828C14.3457-0.839844 14.3164-0.986328 14.2383-1.20117L9.6582-13.3887C9.43359-13.9941 9.0332-14.2871 8.4082-14.2871C7.80273-14.2871 7.39258-13.9941 7.17773-13.3984L2.59766-1.19141C2.51953-0.976562 2.49023-0.830078 2.49023-0.664062C2.49023-0.175781 2.80273 0.126953 3.31055 0.126953ZM6.00586-5.53711L8.37891-12.1094L8.42773-12.1094L10.8008-5.53711Z"/>
  </g>
  <line id="" style="fill:none;stroke:#00AEEF;stroke-width:0.5;opacity:1.0;" x1="792.836" x2="792.836" y1="1919" y2="1933"/>
  <text style="stroke:none;fill:black;font-family:-apple-system,&quot;SF Pro Display&quot;,&quot;SF Pro Text&quot;,Helvetica,sans-serif;font-weight:bold;" transform="matrix(1 0 0 1 776 1953)">Margins</text>
  <text style="stroke:none;fill:black;font-family:-apple-system,&quot;SF Pro Display&quot;,&quot;SF Pro Text&quot;,Helvetica,sans-serif;" transform="matrix(1 0 0 1 776 1971)">Leading and trailing margins on the left and right side of each symbol</text>
  <text style="stroke:none;fill:black;font-family:-apple-system,&quot;SF Pro Display&quot;,&quot;SF Pro Text&quot;,Helvetica,sans-serif;" transform="matrix(1 0 0 1 776 1989)">can be adjusted by modifying the x-location of the margin guidelines.</text>
  <text style="stroke:none;fill:black;font-family:-apple-system,&quot;SF Pro Display&quot;,&quot;SF Pro Text&quot;,Helvetica,sans-serif;" transform="matrix(1 0 0 1 776 2007)">Modifications are automatically applied proportionally to all</text>
  <text style="stroke:none;fill:black;font-family:-apple-system,&quot;SF Pro Display&quot;,&quot;SF Pro Text&quot;,Helvetica,sans-serif;" transform="matrix(1 0 0 1 776 2025)">scales and weights.</text>
  <g id="" transform="matrix(1 0 0 1 1289 1933)">
   <path d="M2.8418 1.86523L4.54102 3.57422C5.40039 4.44336 6.38672 4.38477 7.31445 3.35938L17.4902-7.85156C17.7539-7.76367 18.0273-7.7832 18.3398-7.8418L19.4043-8.03711L20.0684-7.36328L20.0293-6.80664C19.9902-6.30859 20.1172-5.92773 20.6055-5.44922L21.3672-4.70703C21.8457-4.22852 22.4609-4.19922 22.9297-4.66797L25.8398-7.58789C26.3086-8.05664 26.2891-8.65234 25.8105-9.13086L25.0391-9.89258C24.5605-10.3711 24.1895-10.5273 23.7109-10.4883L23.1348-10.4395L22.4902-11.0742L22.7344-12.1973C22.8613-12.7637 22.7051-13.2031 22.1191-13.7891L19.9219-15.9766C16.582-19.2969 12.1484-19.2188 9.25781-16.3281C8.83789-15.918 8.80859-15.3418 9.04297-14.9512C9.27734-14.5898 9.73633-14.3555 10.3809-14.5215C11.8457-14.8633 13.3691-14.9219 14.7949-13.9844L14.209-12.5293C14.0137-12.0508 13.9844-11.6504 14.1113-11.2891L3.04688-0.898438C2.06055 0.0195312 1.98242 0.996094 2.8418 1.86523ZM10.752-15.957C13.1836-17.7344 16.4746-17.4316 18.7012-15.2051L21.1328-12.793C21.3672-12.5586 21.4062-12.373 21.3379-12.0312L21.0156-10.5469L22.5195-9.0625L23.5059-9.12109C23.7598-9.13086 23.8379-9.11133 24.0332-8.91602L24.6094-8.33984L22.168-5.89844L21.5918-6.47461C21.3965-6.66992 21.3672-6.74805 21.377-7.01172L21.4453-7.98828L19.9512-9.47266L18.4277-9.21875C18.1055-9.15039 17.959-9.17969 17.7148-9.41406L15.7129-11.416C15.459-11.6504 15.4297-11.8164 15.5859-12.1875L16.4648-14.2773C14.9023-15.7324 12.8711-16.3574 10.8398-15.7617C10.6836-15.7227 10.625-15.8496 10.752-15.957ZM5.27344 2.30469L4.10156 1.14258C3.63281 0.683594 3.74023 0.341797 4.14062-0.0195312L14.9512-10.1953L16.416-8.71094L6.42578 2.27539C6.07422 2.67578 5.74219 2.77344 5.27344 2.30469Z"/>
  </g>
  <text style="stroke:none;fill:black;font-family:-apple-system,&quot;SF Pro Display&quot;,&quot;SF Pro Text&quot;,Helvetica,sans-serif;font-weight:bold;" transform="matrix(1 0 0 1 1289 1953)">Exporting</text>
  <text style="stroke:none;fill:black;font-family:-apple-system,&quot;SF Pro Display&quot;,&quot;SF Pro Text&quot;,Helvetica,sans-serif;" transform="matrix(1 0 0 1 1289 1971)">Symbols should be outlined when exporting to ensure the</text>
  <text style="stroke:none;fill:black;font-family:-apple-system,&quot;SF Pro Display&quot;,&quot;SF Pro Text&quot;,Helvetica,sans-serif;" transform="matrix(1 0 0 1 1289 1989)">design is preserved when submitting to Xcode.</text>
  <text id="template-version" style="stroke:none;fill:black;font-family:-apple-system,&quot;SF Pro Display&quot;,&quot;SF Pro Text&quot;,Helvetica,sans-serif;text-anchor:end;" transform="matrix(1 0 0 1 3036 1933)">Template v.2.0</text>
  <text style="stroke:none;fill:black;font-family:-apple-system,&quot;SF Pro Display&quot;,&quot;SF Pro Text&quot;,Helvetica,sans-serif;text-anchor:end;" transform="matrix(1 0 0 1 3036 1951)">Requires Xcode 12 or greater</text>
  <text style="stroke:none;fill:black;font-family:-apple-system,&quot;SF Pro Display&quot;,&quot;SF Pro Text&quot;,Helvetica,sans-serif;text-anchor:end;" transform="matrix(1 0 0 1 3036 1969)">Generated from moon.zzz.fill</text>
  <text style="stroke:none;fill:black;font-family:-apple-system,&quot;SF Pro Display&quot;,&quot;SF Pro Text&quot;,Helvetica,sans-serif;text-anchor:end;" transform="matrix(1 0 0 1 3036 1987)">Typeset at 100 points</text>
  <text style="stroke:none;fill:black;font-family:-apple-system,&quot;SF Pro Display&quot;,&quot;SF Pro Text&quot;,Helvetica,sans-serif;" transform="matrix(1 0 0 1 263 726)">Small</text>
  <text style="stroke:none;fill:black;font-family:-apple-system,&quot;SF Pro Display&quot;,&quot;SF Pro Text&quot;,Helvetica,sans-serif;" transform="matrix(1 0 0 1 263 1156)">Medium</text>
  <text style="stroke:none;fill:black;font-family:-apple-system,&quot;SF Pro Display&quot;,&quot;SF Pro Text&quot;,Helvetica,sans-serif;" transform="matrix(1 0 0 1 263 1586)">Large</text>
 </g>
 <g id="Guides">
  <g id="H-reference" style="fill:#27AAE1;stroke:none;" transform="matrix(1 0 0 1 339 696)">
   <path d="M0.976562 0L3.66211 0L12.9883-24.4629L45.752-24.4629L55.127 0L57.7637 0L30.6152-70.459L28.125-70.459ZM29.3457-67.1387L29.4434-67.1387L44.873-26.709L13.8672-26.709Z"/>
  </g>
  <line id="Baseline-S" style="fill:none;stroke:#27AAE1;opacity:1;stroke-width:0.5;" x1="263" x2="3036" y1="696" y2="696"/>
  <line id="Capline-S" style="fill:none;stroke:#27AAE1;opacity:1;stroke-width:0.5;" x1="263" x2="3036" y1="625.541" y2="625.541"/>
  <g id="H-reference" style="fill:#27AAE1;stroke:none;" transform="matrix(1 0 0 1 339 1126)">
   <path d="M0.976562 0L3.66211 0L12.9883-24.4629L45.752-24.4629L55.127 0L57.7637 0L30.6152-70.459L28.125-70.459ZM29.3457-67.1387L29.4434-67.1387L44.873-26.709L13.8672-26.709Z"/>
  </g>
  <line id="Baseline-M" style="fill:none;stroke:#27AAE1;opacity:1;stroke-width:0.5;" x1="263" x2="3036" y1="1126" y2="1126"/>
  <line id="Capline-M" style="fill:none;stroke:#27AAE1;opacity:1;stroke-width:0.5;" x1="263" x2="3036" y1="1055.54" y2="1055.54"/>
  <g id="H-reference" style="fill:#27AAE1;stroke:none;" transform="matrix(1 0 0 1 339 1556)">
   <path d="M0.976562 0L3.66211 0L12.9883-24.4629L45.752-24.4629L55.127 0L57.7637 0L30.6152-70.459L28.125-70.459ZM29.3457-67.1387L29.4434-67.1387L44.873-26.709L13.8672-26.709Z"/>
  </g>
  <line id="Baseline-L" style="fill:none;stroke:#27AAE1;opacity:1;stroke-width:0.5;" x1="263" x2="3036" y1="1556" y2="1556"/>
  <line id="Capline-L" style="fill:none;stroke:#27AAE1;opacity:1;stroke-width:0.5;" x1="263" x2="3036" y1="1485.54" y2="1485.54"/>
  <line id="left-margin" style="fill:none;stroke:#00AEEF;stroke-width:0.5;opacity:1.0;" x1="1392.35" x2="1392.35" y1="1030.79" y2="1150.12"/>
  <line id="right-margin" style="fill:none;stroke:#00AEEF;stroke-width:0.5;opacity:1.0;" x1="1507.34" x2="1507.34" y1="1030.79" y2="1150.12"/>
 </g>
 <g id="Symbols">
  <g id="Black-L" transform="matrix(1 0 0 1 2850.88 1556)">
   <path d="M114.941-100.928L101.904-100.928L101.904-101.27L117.188-119.824C118.848-121.826 119.482-123.193 119.482-125.244C119.482-128.369 117.188-130.469 113.965-130.469L92.2363-130.469C88.7695-130.469 86.6211-128.564 86.6211-125.488C86.6211-122.461 88.8672-120.508 92.2363-120.508L104.785-120.508L104.785-120.166L89.6973-101.758C87.9883-99.707 87.4023-98.1934 87.4023-96.2402C87.4023-93.1641 89.6484-91.0645 92.8223-91.0645L114.941-91.0645C118.262-91.0645 120.557-92.9688 120.557-95.9961C120.557-99.0723 118.408-100.928 114.941-100.928ZM147.217-74.8535L139.746-74.8535L139.746-75.1953L149.219-86.1328C150.83-87.8906 151.465-89.3555 151.465-91.4062C151.465-94.3359 149.268-96.3379 146.24-96.3379L131.006-96.3379C127.783-96.3379 125.732-94.6777 125.732-91.8945C125.732-89.0625 127.832-87.4023 131.006-87.4023L138.037-87.4023L138.037-87.1094L128.955-76.5625C127.295-74.6582 126.514-72.9492 126.514-70.8984C126.514-68.0176 128.613-66.0645 131.641-66.0645L147.217-66.0645C150.391-66.0645 152.49-67.6758 152.49-70.459C152.49-73.1934 150.439-74.8535 147.217-74.8535ZM73.584 28.7109C99.1211 28.7109 121.289 13.623 130.664-9.08203C132.422-13.3301 132.324-16.748 130.225-18.7012C128.271-20.459 125-20.7031 121.631-19.1406C116.26-16.6992 108.887-14.8926 101.562-14.8926C74.2676-14.8926 55.5664-33.0078 55.5664-59.2773C55.5664-67.0898 57.4707-75.8301 60.2051-81.7871C62.0605-85.791 61.8652-88.8184 60.1562-90.7715C58.3496-92.8711 54.9316-93.1152 50.6836-91.4551C27.3926-82.3242 11.2793-59.0332 11.2793-33.3496C11.2793 2.49023 37.6465 28.7109 73.584 28.7109ZM116.895-52.1973L110.352-52.1973L110.352-52.4902L118.701-62.0117C120.166-63.6719 120.703-64.9902 120.703-66.7969C120.703-69.4336 118.75-71.2402 116.016-71.2402L101.465-71.2402C98.5352-71.2402 96.7285-69.6289 96.7285-66.9922C96.7285-64.4043 98.6328-62.793 101.465-62.793L107.666-62.793L107.666-62.5L99.707-53.3691C97.9492-51.4648 97.4121-50.1465 97.3633-48.1934C97.3145-45.6543 99.2188-43.8477 101.953-43.8477L116.895-43.8477C119.775-43.8477 121.631-45.459 121.631-48.0469C121.631-50.6836 119.873-52.1973 116.895-52.1973Z"/>
  </g>
  <g id="Heavy-L" transform="matrix(1 0 0 1 2556.39 1556)">
   <path d="M111.377-99.8535L97.998-99.8535L97.998-100.146L113.135-118.896C114.746-120.85 115.332-122.07 115.332-123.926C115.332-126.709 113.232-128.613 110.303-128.613L89.1113-128.613C86.0352-128.613 84.1309-126.855 84.1309-124.121C84.1309-121.338 86.1328-119.58 89.1113-119.58L101.953-119.58L101.953-119.287L86.8652-100.635C85.3027-98.7305 84.7656-97.3633 84.7656-95.5566C84.7656-92.8223 86.7676-90.918 89.6484-90.918L111.377-90.918C114.355-90.918 116.357-92.627 116.357-95.4102C116.357-98.1445 114.453-99.8535 111.377-99.8535ZM142.822-74.3164L134.57-74.3164L134.57-74.6094L144.385-86.3281C145.898-88.0371 146.484-89.4043 146.484-91.1621C146.484-93.8477 144.482-95.6055 141.748-95.6055L126.514-95.6055C123.682-95.6055 121.826-94.043 121.826-91.5527C121.826-89.0137 123.73-87.4512 126.514-87.4512L134.229-87.4512L134.229-87.1582L124.707-75.7812C123.145-73.9746 122.461-72.4609 122.461-70.6543C122.461-68.0664 124.365-66.2598 127.1-66.2598L142.822-66.2598C145.654-66.2598 147.51-67.7734 147.51-70.3125C147.51-72.8027 145.703-74.3164 142.822-74.3164ZM71.5332 26.416C96.3867 26.416 117.627 12.2559 126.807-9.61914C128.32-13.3789 128.223-16.4062 126.367-18.1152C124.707-19.6777 121.826-19.9219 118.799-18.5547C113.477-16.2109 106.494-14.5996 99.2188-14.5996C71.5332-14.5996 52.9297-32.6172 52.9297-59.4727C52.9297-67.041 54.6875-75.5859 57.3242-81.25C58.9844-84.7656 58.8379-87.5 57.2754-89.3066C55.6641-91.1133 52.6367-91.3574 48.8281-89.8438C26.5625-81.0059 11.2793-58.5449 11.2793-33.5449C11.2793 0.927734 36.5723 26.416 71.5332 26.416ZM113.232-52.0508L106.104-52.0508L106.104-52.3438L114.648-62.4512C116.016-64.0625 116.553-65.2344 116.553-66.8945C116.553-69.2871 114.746-70.8984 112.256-70.8984L97.998-70.8984C95.3613-70.8984 93.75-69.4336 93.75-67.041C93.75-64.6484 95.459-63.1836 97.998-63.1836L104.639-63.1836L104.639-62.8906L96.3867-53.0762C94.8242-51.3184 94.3359-50.0977 94.2871-48.3398C94.2383-46.0449 95.9473-44.3848 98.4863-44.3848L113.232-44.3848C115.771-44.3848 117.48-45.8984 117.48-48.2422C117.48-50.6348 115.869-52.0508 113.232-52.0508Z"/>
  </g>
  <g id="Bold-L" transform="matrix(1 0 0 1 2262.17 1556)">
   <path d="M107.422-98.584L93.6035-98.584L93.6035-98.9258L108.643-117.871C110.107-119.678 110.645-120.801 110.645-122.412C110.645-124.854 108.838-126.465 106.25-126.465L85.5957-126.465C83.0078-126.465 81.3477-124.902 81.3477-122.559C81.3477-120.117 83.0566-118.604 85.5957-118.604L98.7793-118.604L98.7793-118.262L83.7402-99.3652C82.3242-97.6074 81.7871-96.4355 81.7871-94.8242C81.7871-92.4316 83.5449-90.7715 86.1328-90.7715L107.422-90.7715C109.961-90.7715 111.67-92.2852 111.67-94.7266C111.67-97.0703 110.01-98.584 107.422-98.584ZM137.891-73.6816L128.809-73.6816L128.809-73.9746L139.014-86.5723C140.381-88.1836 140.918-89.4043 140.918-90.918C140.918-93.2617 139.16-94.7754 136.719-94.7754L121.484-94.7754C119.092-94.7754 117.48-93.4082 117.48-91.2109C117.48-88.916 119.092-87.5488 121.484-87.5488L129.932-87.5488L129.932-87.2559L119.922-74.9023C118.506-73.2422 117.92-71.9238 117.92-70.3125C117.92-68.0664 119.58-66.5039 122.021-66.5039L137.891-66.5039C140.332-66.5039 141.943-67.8711 141.943-70.1172C141.943-72.3145 140.332-73.6816 137.891-73.6816ZM69.2383 23.7793C93.3105 23.7793 113.574 10.6934 122.461-10.2539C123.779-13.4277 123.682-16.0156 122.07-17.5293C120.703-18.8477 118.262-19.043 115.674-17.9199C110.4-15.6738 103.76-14.2578 96.5332-14.2578C68.5547-14.2578 49.9512-32.2266 49.9512-59.668C49.9512-67.041 51.5625-75.2441 54.0527-80.6152C55.5176-83.6426 55.3711-86.0352 54.0527-87.5977C52.6367-89.209 50-89.4043 46.7285-88.0859C25.6836-79.541 11.2793-58.0566 11.2793-33.8379C11.2793-0.830078 35.3516 23.7793 69.2383 23.7793ZM109.131-51.8555L101.367-51.8555L101.367-52.1484L110.107-62.9395C111.377-64.502 111.914-65.5273 111.914-66.9434C111.914-69.0918 110.254-70.5078 108.057-70.5078L94.0918-70.5078C91.8457-70.5078 90.3809-69.1895 90.3809-67.0898C90.3809-64.9414 91.9434-63.623 94.0918-63.623L101.27-63.623L101.27-63.3301L92.7246-52.7832C91.3086-51.123 90.8203-50.0488 90.8203-48.5352C90.7715-46.4844 92.334-45.0195 94.5801-45.0195L109.131-45.0195C111.328-45.0195 112.842-46.3867 112.842-48.4863C112.842-50.5859 111.377-51.8555 109.131-51.8555Z"/>
  </g>
  <g id="Semibold-L" transform="matrix(1 0 0 1 1967.17 1556)">
   <path d="M104.688-97.7539L90.625-97.7539L90.625-98.0957L105.566-117.188C106.885-118.896 107.422-119.971 107.422-121.387C107.422-123.584 105.762-125 103.418-125L83.2031-125C80.9082-125 79.3945-123.584 79.3945-121.484C79.3945-119.287 80.957-117.871 83.2031-117.871L96.582-117.871L96.582-117.578L81.5918-98.5352C80.2246-96.8262 79.7363-95.752 79.7363-94.2871C79.7363-92.1387 81.3477-90.6738 83.6426-90.6738L104.688-90.6738C106.885-90.6738 108.447-92.041 108.447-94.2383C108.447-96.3867 106.934-97.7539 104.688-97.7539ZM134.473-73.291L124.805-73.291L124.805-73.5352L135.303-86.7676C136.572-88.3301 137.109-89.4043 137.109-90.7715C137.109-92.8711 135.449-94.1895 133.252-94.1895L118.018-94.1895C115.918-94.1895 114.453-92.9199 114.453-90.918C114.453-88.8672 115.918-87.5977 118.018-87.5977L126.953-87.5977L126.953-87.3047L116.65-74.2676C115.332-72.7051 114.795-71.582 114.795-70.1172C114.795-68.1152 116.309-66.6992 118.506-66.6992L134.473-66.6992C136.621-66.6992 138.086-67.9688 138.086-69.9707C138.086-71.9727 136.67-73.291 134.473-73.291ZM67.627 21.9727C91.2109 21.9727 110.742 9.61914 119.434-10.6934C120.605-13.4277 120.508-15.7227 119.141-17.0898C117.969-18.2617 115.82-18.457 113.477-17.4805C108.252-15.2832 101.904-14.0137 94.7266-14.0137C66.4551-14.0137 47.9004-31.9336 47.9004-59.8145C47.9004-66.9922 49.3652-75.0488 51.8555-80.1758C53.125-82.8613 53.0273-85.0586 51.8066-86.4258C50.5859-87.8418 48.2422-88.0859 45.2637-86.8652C25.0488-78.5156 11.2793-57.7148 11.2793-33.9844C11.2793-2.00195 34.5703 21.9727 67.627 21.9727ZM106.299-51.7578L98.0957-51.7578L98.0957-52.002L106.982-63.2812C108.203-64.7949 108.691-65.7227 108.691-67.041C108.691-68.9941 107.178-70.2148 105.127-70.2148L91.4551-70.2148C89.4531-70.2148 88.0859-68.9941 88.0859-67.0898C88.0859-65.1367 89.502-63.9648 91.4551-63.9648L98.9258-63.9648L98.9258-63.6719L90.1855-52.5879C88.916-51.0254 88.4277-50.0488 88.4277-48.6816C88.3789-46.7773 89.8438-45.459 91.8457-45.459L106.299-45.459C108.252-45.459 109.619-46.7285 109.619-48.6328C109.619-50.5371 108.301-51.7578 106.299-51.7578Z"/>
  </g>
  <g id="Medium-L" transform="matrix(1 0 0 1 1671.75 1556)">
   <path d="M102.588-97.1191L88.3301-97.1191L88.3301-97.4121L103.174-116.65C104.492-118.311 105.029-119.336 105.029-120.557C105.029-122.607 103.418-123.877 101.318-123.877L81.3477-123.877C79.3457-123.877 77.9297-122.607 77.9297-120.654C77.9297-118.604 79.3457-117.334 81.3477-117.334L94.9219-117.334L94.9219-117.041L79.9805-97.8516C78.6621-96.1914 78.1738-95.2637 78.1738-93.8965C78.1738-91.9434 79.6875-90.5762 81.7871-90.5762L102.588-90.5762C104.59-90.5762 106.006-91.8457 106.006-93.8965C106.006-95.8008 104.639-97.1191 102.588-97.1191ZM131.934-72.9492L121.777-72.9492L121.777-73.2422L132.471-86.8652C133.643-88.3789 134.18-89.4043 134.18-90.625C134.18-92.5781 132.666-93.75 130.664-93.75L115.43-93.75C113.525-93.75 112.158-92.5781 112.158-90.7715C112.158-88.8184 113.525-87.6465 115.43-87.6465L124.707-87.6465L124.707-87.3535L114.16-73.8281C112.939-72.3145 112.402-71.2891 112.402-69.9707C112.402-68.1152 113.818-66.8457 115.869-66.8457L131.934-66.8457C133.838-66.8457 135.156-68.0176 135.156-69.873C135.156-71.7285 133.838-72.9492 131.934-72.9492ZM66.4062 20.6055C89.5996 20.6055 108.643 8.83789 117.188-10.9863C118.213-13.4766 118.115-15.5273 116.895-16.748C115.869-17.8223 113.965-18.0176 111.865-17.1387C106.641-15.0391 100.488-13.8672 93.3594-13.8672C64.8926-13.8672 46.3867-31.7383 46.3867-59.9121C46.3867-66.9922 47.7539-74.9023 50.1465-79.834C51.3184-82.2754 51.2207-84.2773 50.1465-85.5469C48.9746-86.8652 46.875-87.0605 44.1406-85.9375C24.5605-77.7344 11.2793-57.4707 11.2793-34.1309C11.2793-2.92969 33.9355 20.6055 66.4062 20.6055ZM104.15-51.6602L95.6055-51.6602L95.6055-51.9043L104.639-63.5254C105.762-65.0391 106.25-65.8691 106.25-67.0898C106.25-68.8965 104.834-70.0195 102.93-70.0195L89.4043-70.0195C87.5977-70.0195 86.377-68.8477 86.377-67.1387C86.377-65.332 87.6465-64.1602 89.4043-64.1602L97.168-64.1602L97.168-63.916L88.2324-52.3926C87.0605-50.9277 86.6211-50.0488 86.6211-48.7305C86.5723-47.0215 87.9395-45.8008 89.7949-45.8008L104.15-45.8008C105.957-45.8008 107.178-46.9727 107.178-48.7305C107.178-50.4883 105.957-51.6602 104.15-51.6602Z"/>
  </g>
  <g id="Regular-L" transform="matrix(1 0 0 1 1376.72 1556)">
   <path d="M99.9023-96.2891L85.3027-96.2891L85.3027-96.582L100.146-115.967C101.318-117.529 101.807-118.457 101.807-119.531C101.807-121.338 100.439-122.461 98.5352-122.461L78.9551-122.461C77.2461-122.461 76.0254-121.289 76.0254-119.58C76.0254-117.773 77.2461-116.65 78.9551-116.65L92.7246-116.65L92.7246-116.357L77.832-97.0215C76.6113-95.459 76.1719-94.6289 76.1719-93.4082C76.1719-91.6992 77.4902-90.4785 79.3945-90.4785L99.9023-90.4785C101.611-90.4785 102.832-91.6016 102.832-93.4082C102.832-95.1172 101.611-96.2891 99.9023-96.2891ZM128.564-72.5098L117.822-72.5098L117.822-72.8027L128.809-87.0605C129.883-88.5254 130.42-89.4043 130.42-90.4785C130.42-92.1875 129.053-93.2129 127.246-93.2129L111.963-93.2129C110.352-93.2129 109.18-92.0898 109.18-90.4785C109.18-88.7695 110.352-87.6953 111.963-87.6953L121.777-87.6953L121.777-87.4023L110.889-73.1934C109.766-71.8262 109.326-70.9473 109.326-69.7266C109.326-68.1641 110.596-66.9922 112.402-66.9922L128.564-66.9922C130.225-66.9922 131.348-68.0664 131.348-69.7754C131.348-71.4355 130.225-72.5098 128.564-72.5098ZM64.8438 18.8477C87.5 18.8477 105.859 7.76367 114.209-11.4258C115.137-13.4766 115.039-15.2832 113.965-16.3574C113.135-17.2363 111.523-17.4316 109.717-16.6992C104.492-14.6484 98.6328-13.623 91.5527-13.623C62.793-13.623 44.3359-31.4453 44.3359-60.0586C44.3359-66.9922 45.6055-74.707 47.9004-79.4434C48.9258-81.4941 48.877-83.3008 47.9492-84.375C46.9238-85.5469 45.0684-85.6934 42.7246-84.7168C23.9258-76.7578 11.2793-57.1289 11.2793-34.2773C11.2793-4.10156 33.1055 18.8477 64.8438 18.8477ZM101.367-51.5137L92.334-51.5137L92.334-51.8066L101.514-63.8672C102.588-65.332 103.076-66.1133 103.076-67.1387C103.076-68.7988 101.758-69.7754 100.049-69.7754L86.7676-69.7754C85.2051-69.7754 84.082-68.7012 84.082-67.1387C84.082-65.5273 85.2051-64.502 86.7676-64.502L94.8242-64.502L94.8242-64.209L85.7422-52.1973C84.668-50.7812 84.2285-50 84.2285-48.877C84.2285-47.3145 85.4492-46.2402 87.1582-46.2402L101.367-46.2402C102.881-46.2402 104.004-47.3145 104.004-48.877C104.004-50.4395 102.881-51.5137 101.367-51.5137Z"/>
  </g>
  <g id="Light-L" transform="matrix(1 0 0 1 1081.5 1556)">
   <path d="M99.1699-94.8242L84.2773-94.8242L84.2773-95.1172L99.2676-114.6C100.293-115.918 100.781-116.699 100.781-117.676C100.781-119.287 99.5117-120.166 97.9004-120.166L79.248-120.166C77.832-120.166 76.8066-119.189 76.8066-117.822C76.8066-116.406 77.832-115.43 79.248-115.43L93.3594-115.43L93.3594-115.088L78.3691-95.7031C77.3438-94.3359 76.9043-93.6523 76.9043-92.5293C76.9043-91.0156 78.0762-90.0391 79.6875-90.0391L99.1699-90.0391C100.586-90.0391 101.611-91.0156 101.611-92.4316C101.611-93.7988 100.586-94.8242 99.1699-94.8242ZM126.709-71.582L115.137-71.582L115.137-71.875L126.807-86.9141C127.783-88.1836 128.223-88.916 128.223-89.9414C128.223-91.4551 127.051-92.334 125.439-92.334L110.4-92.334C109.033-92.334 108.057-91.3574 108.057-90.0391C108.057-88.6719 109.033-87.7441 110.4-87.7441L121.143-87.7441L121.143-87.4512L109.57-72.4121C108.594-71.1914 108.154-70.459 108.154-69.3848C108.154-67.9199 109.277-66.9922 110.889-66.9922L126.709-66.9922C128.125-66.9922 129.053-67.9199 129.053-69.2871C129.053-70.6055 128.125-71.582 126.709-71.582ZM63.7207 17.9199C86.1816 17.9199 104.346 7.17773 112.695-11.4258C113.525-13.2324 113.428-14.7949 112.549-15.7715C111.768-16.5527 110.352-16.7969 108.643-16.1133C103.467-14.1113 97.6562-12.9883 90.332-12.9883C61.2793-12.9883 42.8223-30.8105 42.8223-60.2051C42.8223-66.8457 43.9453-74.2188 46.4844-79.4922C47.4121-81.3477 47.3145-82.959 46.3867-83.9355C45.459-84.9609 43.75-85.1074 41.5527-84.082C23.584-75.7324 11.2793-56.9336 11.2793-34.4727C11.2793-4.93164 32.0801 17.9199 63.7207 17.9199ZM100.293-51.2695L90.7227-51.2695L90.7227-51.5625L100.342-64.0137C101.27-65.2832 101.758-65.9668 101.758-66.9434C101.758-68.4082 100.586-69.2871 99.0723-69.2871L86.1328-69.2871C84.8145-69.2871 83.8379-68.3594 83.8379-67.0898C83.8379-65.7715 84.8145-64.8438 86.1328-64.8438L94.873-64.8438L94.873-64.5508L85.3516-52.0996C84.375-50.8789 83.9355-50.1953 83.9355-49.1699C83.9355-47.7539 85.0586-46.8262 86.5723-46.8262L100.293-46.8262C101.611-46.8262 102.539-47.7539 102.539-49.0723C102.539-50.3418 101.611-51.2695 100.293-51.2695Z"/>
  </g>
  <g id="Thin-L" transform="matrix(1 0 0 1 786.744 1556)">
   <path d="M98.1934-92.8711L82.959-92.8711L82.959-93.2129L98.0957-112.744C98.9746-113.77 99.3652-114.307 99.3652-115.234C99.3652-116.504 98.3398-117.188 97.0703-117.188L79.5898-117.188C78.5156-117.188 77.832-116.406 77.832-115.479C77.832-114.551 78.5156-113.77 79.5898-113.77L94.1895-113.77L94.1895-113.477L79.1016-93.9453C78.2227-92.9199 77.832-92.3828 77.832-91.4551C77.832-90.1855 78.8574-89.4531 80.127-89.4531L98.1934-89.4531C99.2676-89.4531 100-90.2344 100-91.1621C100-92.0898 99.2676-92.8711 98.1934-92.8711ZM124.268-70.3613L111.621-70.3613L111.621-70.6543L124.17-86.7188C125-87.7441 125.391-88.2812 125.391-89.1602C125.391-90.4785 124.365-91.1621 123.096-91.1621L108.301-91.1621C107.275-91.1621 106.543-90.3809 106.543-89.4531C106.543-88.5254 107.275-87.793 108.301-87.793L120.312-87.793L120.312-87.4512L107.812-71.3867C106.982-70.3613 106.592-69.873 106.592-68.9453C106.592-67.6758 107.568-66.9434 108.838-66.9434L124.268-66.9434C125.293-66.9434 126.025-67.7246 126.025-68.6523C126.025-69.5801 125.293-70.3613 124.268-70.3613ZM62.2559 16.6992C84.4727 16.6992 102.393 6.44531 110.693-11.377C111.377-12.8418 111.377-14.209 110.693-14.9902C110.01-15.7227 108.838-15.9668 107.227-15.3809C102.1-13.4277 96.4355-12.1582 88.7207-12.1582C59.2285-12.1582 40.7715-29.9316 40.7715-60.4004C40.7715-66.6992 41.748-73.6328 44.5801-79.541C45.3613-81.1523 45.166-82.5195 44.3848-83.3496C43.5547-84.2285 42.041-84.2773 40.0391-83.252C23.1445-74.3652 11.2793-56.7383 11.2793-34.7168C11.2793-5.95703 30.7617 16.6992 62.2559 16.6992ZM98.877-50.9766L88.5742-50.9766L88.5742-51.2695L98.7793-64.2578C99.5605-65.2832 100-65.7715 100-66.6992C100-67.9688 99.0234-68.6523 97.7539-68.6523L85.3027-68.6523C84.2773-68.6523 83.5449-67.8711 83.5449-66.9922C83.5449-66.0645 84.2773-65.2832 85.3027-65.2832L94.9707-65.2832L94.9707-64.9902L84.8145-52.002C83.9844-50.9277 83.5938-50.4883 83.5938-49.5605C83.5938-48.291 84.5703-47.6074 85.8398-47.6074L98.877-47.6074C99.9512-47.6074 100.635-48.3887 100.635-49.2676C100.635-50.1953 99.9512-50.9766 98.877-50.9766Z"/>
  </g>
  <g id="Ultralight-L" transform="matrix(1 0 0 1 491.034 1556)">
   <path d="M97.7051-91.8945L82.2754-91.8945L82.2754-92.2363L97.5098-111.768C98.2422-112.646 98.6328-113.086 98.6328-113.965C98.6328-115.088 97.7539-115.674 96.6309-115.674L79.7852-115.674C78.9062-115.674 78.3203-114.99 78.3203-114.307C78.3203-113.623 78.9062-112.939 79.7852-112.939L94.6289-112.939L94.6289-112.646L79.4922-93.0664C78.7109-92.1875 78.3203-91.748 78.3203-90.8691C78.3203-89.7461 79.248-89.1602 80.3711-89.1602L97.7051-89.1602C98.584-89.1602 99.1699-89.8438 99.1699-90.5273C99.1699-91.2109 98.584-91.8945 97.7051-91.8945ZM122.998-69.7266L109.766-69.7266L109.766-70.0195L122.803-86.6211C123.535-87.5 123.926-87.9395 123.926-88.8184C123.926-89.9414 123.047-90.5273 121.875-90.5273L107.227-90.5273C106.348-90.5273 105.762-89.8926 105.762-89.1602C105.762-88.4766 106.348-87.793 107.227-87.793L119.873-87.793L119.873-87.4512L106.934-70.8984C106.152-69.9707 105.762-69.5312 105.762-68.7012C105.762-67.5293 106.689-66.9434 107.812-66.9434L122.998-66.9434C123.877-66.9434 124.463-67.627 124.463-68.3105C124.463-69.043 123.877-69.7266 122.998-69.7266ZM61.4746 16.0645C83.5938 16.0645 101.416 6.05469 109.668-11.377C110.303-12.6465 110.303-13.8672 109.717-14.5508C109.082-15.2832 108.008-15.5273 106.543-14.9902C101.416-13.0371 95.8008-11.7188 87.8906-11.7188C58.2031-11.7188 39.6973-29.4922 39.6973-60.498C39.6973-66.6016 40.625-73.3398 43.6035-79.5898C44.2871-81.0547 44.0918-82.2754 43.3105-83.0566C42.5293-83.8379 41.1621-83.8867 39.2578-82.8125C22.9004-73.6816 11.2793-56.5918 11.2793-34.8633C11.2793-6.49414 30.0781 16.0645 61.4746 16.0645ZM98.1445-50.7812L87.4512-50.7812L87.4512-51.123L97.9492-64.3555C98.6328-65.2832 99.1211-65.7227 99.1211-66.5527C99.1211-67.7246 98.1934-68.3105 97.0703-68.3105L84.8633-68.3105C83.9844-68.3105 83.3984-67.627 83.3984-66.9434C83.3984-66.2109 83.9844-65.5273 84.8633-65.5273L94.9707-65.5273L94.9707-65.2344L84.5703-51.9531C83.7891-50.9766 83.3984-50.6348 83.3984-49.7559C83.3984-48.584 84.3262-47.998 85.4492-47.998L98.1445-47.998C99.0723-47.998 99.6582-48.6816 99.6582-49.4141C99.6582-50.0977 99.0723-50.7812 98.1445-50.7812Z"/>
  </g>
  <g id="Black-M" transform="matrix(1 0 0 1 2867.24 1126)">
   <path d="M93.5059-86.8652L83.7402-86.8652L83.7402-87.1094L95.8008-101.221C97.168-102.881 97.6562-103.906 97.6562-105.811C97.6562-108.545 95.7031-110.4 92.8711-110.4L75.8301-110.4C72.7539-110.4 70.9473-108.789 70.9473-106.152C70.9473-103.564 72.9004-101.855 75.8301-101.855L85.3516-101.855L85.3516-101.611L73.584-87.5977C72.2168-85.9863 71.6797-84.668 71.6797-82.959C71.6797-80.2734 73.6328-78.4668 76.416-78.4668L93.5059-78.4668C96.4355-78.4668 98.3887-80.0781 98.3887-82.666C98.3887-85.3027 96.582-86.8652 93.5059-86.8652ZM119.043-66.2109L113.818-66.2109L113.818-66.4551L121.045-74.3164C122.461-75.6836 122.949-76.9531 122.949-78.7598C122.949-81.3477 121.045-83.1055 118.408-83.1055L106.787-83.1055C103.857-83.1055 102.1-81.7383 102.1-79.3457C102.1-77.002 103.955-75.5859 106.787-75.5859L111.865-75.5859L111.865-75.3418L105.029-67.9199C103.564-66.3574 102.881-64.8438 102.881-63.0859C102.881-60.498 104.688-58.7891 107.324-58.7891L119.043-58.7891C121.875-58.7891 123.682-60.1562 123.682-62.5C123.682-64.7949 121.924-66.2109 119.043-66.2109ZM59.1797 16.9922C79.834 16.9922 98.1445 4.19922 105.713-14.209C107.275-18.0664 107.227-21.1426 105.322-22.8516C103.467-24.4629 100.537-24.6582 97.5098-23.1934C93.3105-21.1914 87.1582-19.5801 81.25-19.5801C60.3516-19.5801 45.8008-33.6426 45.8008-53.7109C45.8008-59.8633 47.4121-66.7969 49.8047-72.1191C51.4648-75.6836 51.2695-78.3203 49.6582-80.0781C48.0957-81.9336 45.0195-82.1289 41.2109-80.6152C22.1191-72.9492 8.74023-54.1992 8.74023-33.5449C8.74023-4.3457 30.0293 16.9922 59.1797 16.9922ZM94.9707-48.4863L90.4297-48.4863L90.4297-48.7305L96.8262-55.4688C97.998-56.7383 98.4375-57.8613 98.4375-59.4727C98.4375-61.7676 96.8262-63.3301 94.4336-63.3301L82.959-63.3301C80.3711-63.3301 78.8574-62.0117 78.8574-59.7656C78.8574-57.6172 80.5176-56.25 82.959-56.25L87.5488-56.25L87.5488-56.0059L81.4941-49.6094C79.9805-48.0469 79.541-46.9238 79.4922-45.2148C79.4434-43.0176 81.0547-41.4551 83.4473-41.4551L94.9707-41.4551C97.5098-41.4551 99.1211-42.8223 99.1211-44.9707C99.1211-47.2168 97.6074-48.4863 94.9707-48.4863Z"/>
  </g>
  <g id="Heavy-M" transform="matrix(1 0 0 1 2572.58 1126)">
   <path d="M89.7949-86.0352L79.7363-86.0352L79.7363-86.2793L91.6016-100.635C92.9199-102.197 93.3594-103.174 93.3594-104.834C93.3594-107.275 91.6016-108.936 89.0625-108.936L72.3633-108.936C69.6289-108.936 68.0176-107.422 68.0176-105.078C68.0176-102.734 69.7266-101.221 72.3633-101.221L82.0801-101.221L82.0801-100.977L70.3613-86.7188C69.0918-85.1562 68.6035-83.9844 68.6035-82.4707C68.6035-80.0293 70.3613-78.418 72.8516-78.418L89.7949-78.418C92.3828-78.418 94.1406-79.8828 94.1406-82.2266C94.1406-84.6191 92.4805-86.0352 89.7949-86.0352ZM114.697-65.8203L108.887-65.8203L108.887-66.0645L116.309-74.5605C117.578-75.9277 118.066-77.0508 118.066-78.6621C118.066-80.957 116.357-82.5195 113.965-82.5195L102.246-82.5195C99.707-82.5195 98.1445-81.25 98.1445-79.1016C98.1445-76.9531 99.7559-75.6348 102.246-75.6348L107.812-75.6348L107.812-75.3906L100.684-67.2363C99.3652-65.7715 98.7305-64.4531 98.7305-62.8418C98.7305-60.5957 100.391-59.0332 102.783-59.0332L114.697-59.0332C117.188-59.0332 118.848-60.3027 118.848-62.4512C118.848-64.5508 117.236-65.8203 114.697-65.8203ZM57.2266 14.6973C77.1484 14.6973 94.5312 2.83203 101.855-14.7949C103.223-18.1641 103.174-20.8496 101.514-22.3633C99.9512-23.7793 97.3633-23.9746 94.6777-22.7539C90.5273-20.8496 84.7656-19.3848 78.9551-19.3848C57.8125-19.3848 43.3105-33.3984 43.3105-53.8574C43.3105-59.8633 44.7754-66.6504 47.0215-71.4844C48.4863-74.6094 48.291-77.002 46.9238-78.5645C45.5078-80.1758 42.8223-80.3711 39.4531-79.0039C21.3379-71.7773 8.74023-53.7598 8.74023-33.7402C8.74023-5.81055 29.1504 14.6973 57.2266 14.6973ZM91.2598-48.3398L86.1816-48.3398L86.1816-48.584L92.7246-55.9082C93.8477-57.1289 94.2383-58.1543 94.2383-59.6191C94.2383-61.6699 92.7246-63.0859 90.5762-63.0859L79.3457-63.0859C77.0508-63.0859 75.6836-61.8652 75.6836-59.8145C75.6836-57.8613 77.1484-56.5918 79.3457-56.5918L84.2285-56.5918L84.2285-56.3477L78.0273-49.3164C76.6602-47.8516 76.2207-46.8262 76.1719-45.3125C76.123-43.3594 77.6367-41.9434 79.7852-41.9434L91.2598-41.9434C93.5059-41.9434 94.9707-43.1641 94.9707-45.166C94.9707-47.2168 93.6035-48.3398 91.2598-48.3398Z"/>
  </g>
  <g id="Bold-M" transform="matrix(1 0 0 1 2278.16 1126)">
   <path d="M85.6445-85.1074L75.2441-85.1074L75.2441-85.3516L86.9629-99.9023C88.1348-101.416 88.5742-102.344 88.5742-103.711C88.5742-105.859 87.0117-107.275 84.8145-107.275L68.457-107.275C66.1621-107.275 64.6973-105.957 64.6973-103.857C64.6973-101.807 66.2109-100.439 68.457-100.439L78.4668-100.439L78.4668-100.195L66.7969-85.7422C65.5762-84.2773 65.1855-83.252 65.1855-81.8848C65.1855-79.7852 66.6992-78.3691 68.8965-78.3691L85.6445-78.3691C87.8906-78.3691 89.4043-79.6875 89.4043-81.7383C89.4043-83.8379 87.9395-85.1074 85.6445-85.1074ZM109.863-65.4297L103.369-65.4297L103.369-65.6738L110.986-74.9023C112.158-76.1719 112.598-77.1973 112.598-78.5645C112.598-80.5664 111.084-81.8848 109.033-81.8848L97.2168-81.8848C95.0684-81.8848 93.7012-80.7129 93.7012-78.8086C93.7012-76.9043 95.1172-75.7324 97.2168-75.7324L103.271-75.7324L103.271-75.4883L95.8496-66.5039C94.6777-65.1367 94.1406-64.0137 94.1406-62.6465C94.1406-60.6934 95.5566-59.3262 97.6562-59.3262L109.863-59.3262C112.012-59.3262 113.379-60.4492 113.379-62.4023C113.379-64.2578 112.012-65.4297 109.863-65.4297ZM55.0293 12.1094C74.1699 12.1094 90.4785 1.31836 97.5586-15.4785C98.6816-18.3105 98.6328-20.5566 97.2168-21.875C95.9473-23.0469 93.7988-23.2422 91.5527-22.2168C87.4512-20.4102 82.0801-19.1895 76.4648-19.1895C54.9805-19.1895 40.5273-33.1543 40.5273-54.0527C40.5273-59.9121 41.8457-66.4551 43.8965-70.752C45.1172-73.4375 45.0195-75.4883 43.8477-76.8555C42.627-78.2227 40.332-78.418 37.5-77.2461C20.459-70.459 8.74023-53.2227 8.74023-33.9844C8.74023-7.51953 28.125 12.1094 55.0293 12.1094ZM87.0605-48.2422L81.4453-48.2422L81.4453-48.4375L88.0859-56.3965C89.1602-57.6172 89.5508-58.5449 89.5508-59.7656C89.5508-61.5723 88.1836-62.793 86.2793-62.793L75.293-62.793C73.3398-62.793 72.0703-61.6699 72.0703-59.8633C72.0703-58.1055 73.3887-56.9824 75.293-56.9824L80.5176-56.9824L80.5176-56.7383L74.0723-49.0234C72.9004-47.6562 72.5098-46.7285 72.4609-45.4102C72.4609-43.7012 73.7305-42.4316 75.6348-42.4316L87.0605-42.4316C89.0137-42.4316 90.2832-43.6035 90.2832-45.3613C90.2832-47.168 89.0625-48.2422 87.0605-48.2422Z"/>
  </g>
  <g id="Semibold-M" transform="matrix(1 0 0 1 1983.01 1126)">
   <path d="M82.8125-84.4727L72.1191-84.4727L72.1191-84.7168L83.7402-99.4629C84.8633-100.879 85.3027-101.758 85.3027-102.979C85.3027-104.883 83.8379-106.104 81.8359-106.104L65.7715-106.104C63.7695-106.104 62.4512-104.883 62.4512-103.027C62.4512-101.123 63.8184-99.9512 65.7715-99.9512L75.9277-99.9512L75.9277-99.707L64.3066-85.0586C63.1836-83.6426 62.793-82.7148 62.793-81.4941C62.793-79.6387 64.1602-78.3691 66.1133-78.3691L82.8125-78.3691C84.7656-78.3691 86.1328-79.541 86.1328-81.4453C86.1328-83.3008 84.8145-84.4727 82.8125-84.4727ZM106.543-65.1367L99.5117-65.1367L99.5117-65.3809L107.373-75.0977C108.398-76.3672 108.838-77.2949 108.838-78.4668C108.838-80.2734 107.471-81.4453 105.615-81.4453L93.75-81.4453C91.8945-81.4453 90.625-80.3711 90.625-78.6621C90.625-76.8555 91.8945-75.7812 93.75-75.7812L100.195-75.7812L100.195-75.5371L92.5293-66.0156C91.4062-64.6973 90.9668-63.6719 90.9668-62.4512C90.9668-60.7422 92.2363-59.5215 94.1406-59.5215L106.543-59.5215C108.398-59.5215 109.668-60.5957 109.668-62.3535C109.668-64.0625 108.398-65.1367 106.543-65.1367ZM53.5645 10.3027C72.1191 10.3027 87.7441 0.244141 94.5801-15.9668C95.5566-18.3594 95.5078-20.3613 94.2871-21.5332C93.2129-22.5586 91.3574-22.7051 89.4043-21.8262C85.3027-20.1172 80.2246-19.0918 74.707-19.0918C52.9785-19.0918 38.623-32.959 38.623-54.1504C38.623-59.9121 39.8438-66.3086 41.748-70.3125C42.8223-72.6074 42.7734-74.4629 41.748-75.6348C40.6738-76.9043 38.6719-77.0508 36.1328-76.0742C19.8242-69.5801 8.74023-52.8809 8.74023-34.1309C8.74023-8.64258 27.4414 10.3027 53.5645 10.3027ZM84.1797-48.1445L78.1738-48.1445L78.1738-48.3398L84.9121-56.7383C85.8887-57.959 86.3281-58.7891 86.3281-59.8633C86.3281-61.5234 85.0586-62.5977 83.3008-62.5977L72.5098-62.5977C70.752-62.5977 69.6289-61.5723 69.6289-59.9121C69.6289-58.252 70.8008-57.2266 72.5098-57.2266L77.9297-57.2266L77.9297-57.0312L71.3867-48.7793C70.3125-47.5098 69.9219-46.6797 69.9219-45.5078C69.873-43.9453 71.0938-42.7734 72.8027-42.7734L84.1797-42.7734C85.8887-42.7734 87.0605-43.8477 87.0605-45.5078C87.0605-47.1191 85.9375-48.1445 84.1797-48.1445Z"/>
  </g>
  <g id="Medium-M" transform="matrix(1 0 0 1 1687.5 1126)">
   <path d="M80.6641-83.9844L69.7754-83.9844L69.7754-84.2285L81.2988-99.0723C82.373-100.488 82.7637-101.318 82.7637-102.393C82.7637-104.15 81.4453-105.225 79.6387-105.225L63.7207-105.225C61.9629-105.225 60.7422-104.102 60.7422-102.393C60.7422-100.635 61.9629-99.5605 63.7207-99.5605L74.0234-99.5605L74.0234-99.3164L62.4512-84.5215C61.377-83.1543 60.9863-82.3242 60.9863-81.1523C60.9863-79.4922 62.207-78.3203 64.0625-78.3203L80.6641-78.3203C82.373-78.3203 83.6426-79.3945 83.6426-81.2012C83.6426-82.9102 82.4219-83.9844 80.6641-83.9844ZM104.004-64.9414L96.6309-64.9414L96.6309-65.1367L104.59-75.2441C105.566-76.5137 106.006-77.3926 106.006-78.418C106.006-80.0781 104.736-81.1035 103.027-81.1035L91.1133-81.1035C89.4531-81.1035 88.2812-80.0781 88.2812-78.5156C88.2812-76.8066 89.4531-75.8301 91.1133-75.8301L97.8027-75.8301L97.8027-75.5859L89.9902-65.625C88.9648-64.3555 88.5742-63.4766 88.5742-62.3535C88.5742-60.791 89.7461-59.668 91.4551-59.668L104.004-59.668C105.664-59.668 106.787-60.6445 106.787-62.3047C106.787-63.916 105.664-64.9414 104.004-64.9414ZM52.3926 8.93555C70.5566 8.93555 85.5957-0.537109 92.334-16.3086C93.2129-18.457 93.1152-20.2148 92.041-21.2891C91.1621-22.168 89.502-22.3145 87.7441-21.5332C83.6914-19.873 78.8086-18.9941 73.3887-18.9941C51.5137-18.9941 37.1582-32.8613 37.1582-54.248C37.1582-59.9121 38.2812-66.2109 40.0879-69.9219C41.0645-71.9727 41.0156-73.6816 40.1367-74.7559C39.1602-75.8789 37.3535-76.0254 35.1074-75.1465C19.3848-68.8965 8.74023-52.6367 8.74023-34.2285C8.74023-9.52148 26.9043 8.93555 52.3926 8.93555ZM81.9824-48.0957L75.7324-48.0957L75.7324-48.291L82.5195-56.9824C83.4473-58.2031 83.8379-58.9844 83.8379-59.9609C83.8379-61.4746 82.666-62.4512 81.0547-62.4512L70.3613-62.4512C68.7988-62.4512 67.7246-61.4746 67.7246-59.9609C67.7246-58.3984 68.8477-57.4219 70.3613-57.4219L76.0254-57.4219L76.0254-57.2266L69.3359-48.6328C68.3594-47.4121 67.9688-46.6309 67.9688-45.5566C67.9688-44.1406 69.0918-43.0664 70.6543-43.0664L81.9824-43.0664C83.5449-43.0664 84.6191-44.043 84.6191-45.6055C84.6191-47.1191 83.5449-48.0957 81.9824-48.0957Z"/>
  </g>
  <g id="Regular-M" transform="matrix(1 0 0 1 1392.35 1126)">
   <path d="M77.832-83.3496L66.6992-83.3496L66.6992-83.5938L78.0762-98.6328C79.1016-99.9512 79.541-100.781 79.541-101.66C79.541-103.174 78.3203-104.102 76.709-104.102L61.0352-104.102C59.5703-104.102 58.4961-103.076 58.4961-101.611C58.4961-100 59.5703-99.0234 61.0352-99.0234L71.5332-99.0234L71.5332-98.7793L60.0098-83.8379C58.9844-82.5195 58.6426-81.7871 58.6426-80.7617C58.6426-79.3457 59.7168-78.3203 61.3281-78.3203L77.832-78.3203C79.2969-78.3203 80.4199-79.248 80.4199-80.8594C80.4199-82.373 79.2969-83.3496 77.832-83.3496ZM100.684-64.6973L92.8711-64.6973L92.8711-64.8926L100.977-75.4883C101.855-76.709 102.295-77.4902 102.295-78.3691C102.295-79.7852 101.123-80.6641 99.6094-80.6641L87.6953-80.6641C86.2793-80.6641 85.2539-79.7363 85.2539-78.3203C85.2539-76.7578 86.2793-75.8789 87.6953-75.8789L94.7266-75.8789L94.7266-75.6836L86.6699-65.0879C85.791-63.916 85.4004-63.1348 85.4004-62.1582C85.4004-60.8398 86.4258-59.8633 87.9883-59.8633L100.684-59.8633C102.1-59.8633 103.125-60.791 103.125-62.2559C103.125-63.7207 102.1-64.6973 100.684-64.6973ZM50.9277 7.17773C68.5547 7.17773 82.8613-1.61133 89.4043-16.7969C90.1367-18.5547 90.0391-20.0195 89.1602-20.9473C88.4277-21.6309 87.1094-21.7773 85.5957-21.1914C81.5918-19.5801 76.9531-18.8477 71.6309-18.8477C49.5605-18.8477 35.2539-32.666 35.2539-54.3945C35.2539-59.9121 36.2793-66.0645 37.9395-69.4336C38.8184-71.1914 38.7695-72.6562 38.0371-73.584C37.207-74.5605 35.6934-74.707 33.7402-73.9258C18.75-67.9688 8.74023-52.2949 8.74023-34.375C8.74023-10.6445 26.2207 7.17773 50.9277 7.17773ZM79.1504-47.998L72.5098-47.998L72.5098-48.1934L79.3457-57.3242C80.2734-58.5449 80.6641-59.2285 80.6641-60.0586C80.6641-61.4258 79.541-62.2559 78.125-62.2559L67.627-62.2559C66.2598-62.2559 65.2832-61.377 65.2832-60.0098C65.2832-58.5449 66.2598-57.7148 67.627-57.7148L73.4863-57.7148L73.4863-57.5195L66.6504-48.4375C65.8203-47.2656 65.4297-46.582 65.4297-45.6543C65.4297-44.3359 66.4551-43.4082 67.8711-43.4082L79.1504-43.4082C80.4688-43.4082 81.3965-44.3359 81.3965-45.752C81.3965-47.0703 80.4688-47.998 79.1504-47.998Z"/>
  </g>
  <g id="Light-M" transform="matrix(1 0 0 1 1096.96 1126)">
   <path d="M77.1973-82.0801L65.7715-82.0801L65.7715-82.3242L77.2949-97.3633C78.1738-98.4863 78.5645-99.1699 78.5645-99.9512C78.5645-101.27 77.5391-102.1 76.123-102.1L61.2793-102.1C60.0586-102.1 59.1797-101.221 59.1797-100C59.1797-98.7793 60.0586-97.9492 61.2793-97.9492L72.0703-97.9492L72.0703-97.7051L60.498-82.666C59.6191-81.543 59.2773-80.957 59.2773-80.0293C59.2773-78.7598 60.2539-77.9297 61.6211-77.9297L77.1973-77.9297C78.418-77.9297 79.2969-78.7109 79.2969-79.9805C79.2969-81.2012 78.418-82.0801 77.1973-82.0801ZM99.0234-63.8184L90.4297-63.8184L90.4297-64.0625L99.1699-75.3418C99.9512-76.416 100.342-77.0508 100.342-77.8809C100.342-79.1016 99.3652-79.8828 97.998-79.8828L86.2793-79.8828C85.1074-79.8828 84.2285-79.0527 84.2285-77.9297C84.2285-76.6602 85.1074-75.8789 86.2793-75.8789L94.1406-75.8789L94.1406-75.6836L85.498-64.4043C84.668-63.3789 84.3262-62.7441 84.3262-61.8652C84.3262-60.6934 85.3027-59.8633 86.6211-59.8633L99.0234-59.8633C100.244-59.8633 101.025-60.6445 101.025-61.8164C101.025-62.9883 100.244-63.8184 99.0234-63.8184ZM49.9023 6.34766C67.3828 6.34766 81.543-2.09961 88.0371-16.7969C88.6719-18.3105 88.623-19.6289 87.8418-20.4102C87.2559-21.0449 86.0352-21.1914 84.668-20.6543C80.6641-19.1406 76.123-18.2617 70.5566-18.2617C48.1934-18.2617 33.8867-32.0801 33.8867-54.4922C33.8867-59.8145 34.8145-65.6738 36.6699-69.4824C37.4023-71.0449 37.3535-72.3633 36.6211-73.1934C35.8887-74.0234 34.5215-74.1699 32.7148-73.3887C18.457-67.0898 8.74023-52.1484 8.74023-34.5703C8.74023-11.377 25.3418 6.34766 49.9023 6.34766ZM78.1738-47.7539L71.0449-47.7539L71.0449-47.998L78.2715-57.4707C79.1016-58.5449 79.4434-59.1309 79.4434-59.9121C79.4434-61.1328 78.4668-61.8164 77.2461-61.8164L67.041-61.8164C65.918-61.8164 65.0879-61.0352 65.0879-59.9609C65.0879-58.7891 65.918-58.0078 67.041-58.0078L73.5352-58.0078L73.5352-57.8125L66.3086-48.3398C65.5273-47.3145 65.1855-46.7285 65.1855-45.8984C65.1855-44.7266 66.1133-43.9453 67.334-43.9453L78.1738-43.9453C79.3457-43.9453 80.127-44.7266 80.127-45.8984C80.127-46.9727 79.3457-47.7539 78.1738-47.7539Z"/>
  </g>
  <g id="Thin-M" transform="matrix(1 0 0 1 802.003 1126)">
   <path d="M76.3184-80.3223L64.5508-80.3223L64.5508-80.5664L76.2695-95.7031C76.9531-96.582 77.2949-97.0215 77.2949-97.7539C77.2949-98.8281 76.4648-99.4141 75.3906-99.4141L61.6211-99.4141C60.6934-99.4141 60.0586-98.7305 60.0586-97.9492C60.0586-97.1191 60.6934-96.4844 61.6211-96.4844L72.8027-96.4844L72.8027-96.2402L61.1328-81.1035C60.4492-80.2246 60.1074-79.7852 60.1074-79.0527C60.1074-77.9785 60.9375-77.3926 62.0117-77.3926L76.3184-77.3926C77.1973-77.3926 77.832-78.0273 77.832-78.8574C77.832-79.6875 77.1973-80.3223 76.3184-80.3223ZM96.8262-62.6953L87.2559-62.6953L87.2559-62.9395L96.7773-75.1465C97.4609-76.0254 97.8027-76.4648 97.8027-77.1973C97.8027-78.2227 96.9727-78.8086 95.8984-78.8086L84.375-78.8086C83.4961-78.8086 82.9102-78.1738 82.9102-77.3926C82.9102-76.5625 83.4961-75.9277 84.375-75.9277L93.4082-75.9277L93.4082-75.6836L83.9355-63.4766C83.252-62.6465 82.9102-62.207 82.9102-61.4258C82.9102-60.4492 83.7402-59.8145 84.7656-59.8145L96.8262-59.8145C97.7051-59.8145 98.291-60.4492 98.291-61.2793C98.291-62.0605 97.7051-62.6953 96.8262-62.6953ZM48.5352 5.27344C65.8691 5.27344 79.7852-2.7832 86.2305-16.748C86.7676-17.9688 86.7676-19.043 86.1816-19.6777C85.6445-20.3125 84.668-20.459 83.3984-20.0195C79.3945-18.5059 75-17.5293 69.0918-17.5293C46.3379-17.5293 32.0312-31.2988 32.0312-54.6875C32.0312-59.6191 32.8613-65.1367 34.9609-69.5801C35.5957-70.8496 35.498-71.9727 34.8145-72.6562C34.1797-73.3398 32.959-73.4375 31.3477-72.6562C18.0176-65.8691 8.74023-51.9531 8.74023-34.7656C8.74023-12.3047 24.1211 5.27344 48.5352 5.27344ZM76.9043-47.5098L69.0918-47.5098L69.0918-47.7051L76.8555-57.666C77.4902-58.4961 77.8809-58.9355 77.8809-59.668C77.8809-60.6934 77.0508-61.2793 76.0254-61.2793L66.2598-61.2793C65.4297-61.2793 64.7949-60.6445 64.7949-59.8633C64.7949-59.082 65.4297-58.4473 66.2598-58.4473L73.584-58.4473L73.584-58.2031L65.8203-48.2422C65.1855-47.3633 64.8438-46.9727 64.8438-46.2402C64.8438-45.2637 65.625-44.6289 66.6992-44.6289L76.9043-44.6289C77.7832-44.6289 78.3691-45.2637 78.3691-46.0938C78.3691-46.875 77.7832-47.5098 76.9043-47.5098Z"/>
  </g>
  <g id="Ultralight-M" transform="matrix(1 0 0 1 506.195 1126)">
   <path d="M75.8789-79.4434L63.9648-79.4434L63.9648-79.6875L75.7324-94.8242C76.3672-95.5566 76.6602-95.9473 76.6602-96.6309C76.6602-97.5586 75.9277-98.0469 75-98.0469L61.7676-98.0469C61.0352-98.0469 60.5469-97.4609 60.5469-96.875C60.5469-96.2891 61.0352-95.7031 61.7676-95.7031L73.1934-95.7031L73.1934-95.459L61.4746-80.3223C60.8398-79.5898 60.5469-79.1992 60.5469-78.5156C60.5469-77.5879 61.2793-77.0996 62.207-77.0996L75.8789-77.0996C76.6113-77.0996 77.0996-77.6855 77.0996-78.2715C77.0996-78.9062 76.6113-79.4434 75.8789-79.4434ZM95.7031-62.1582L85.5957-62.1582L85.5957-62.4023L95.5566-75.0977C96.1914-75.8301 96.4844-76.1719 96.4844-76.8555C96.4844-77.7832 95.752-78.2715 94.8242-78.2715L83.3984-78.2715C82.666-78.2715 82.1777-77.7344 82.1777-77.0996C82.1777-76.5137 82.666-75.9766 83.3984-75.9766L93.0176-75.9766L93.0176-75.7324L83.1055-63.0371C82.5195-62.2559 82.1777-61.9141 82.1777-61.2305C82.1777-60.3027 82.959-59.8145 83.8379-59.8145L95.7031-59.8145C96.4355-59.8145 96.9238-60.3516 96.9238-60.9863C96.9238-61.5723 96.4355-62.1582 95.7031-62.1582ZM47.8516 4.6875C65.0879 4.6875 78.9062-3.125 85.3027-16.748C85.791-17.7734 85.791-18.7988 85.3027-19.3359C84.8145-19.873 83.9355-20.0684 82.7637-19.6289C78.8086-18.1641 74.4141-17.1387 68.3594-17.1387C45.4102-17.1387 31.1035-30.9082 31.1035-54.7852C31.1035-59.5703 31.8359-64.8438 34.082-69.5801C34.6191-70.8008 34.5215-71.7773 33.8867-72.3633C33.252-72.998 32.1777-73.0469 30.6641-72.2656C17.8223-65.2344 8.74023-51.8066 8.74023-34.9121C8.74023-12.793 23.4863 4.6875 47.8516 4.6875ZM76.2695-47.3633L68.0664-47.3633L68.0664-47.6074L76.1719-57.7637C76.709-58.4961 77.0996-58.8867 77.0996-59.5703C77.0996-60.498 76.3184-60.9863 75.3906-60.9863L65.8691-60.9863C65.1367-60.9863 64.6484-60.4004 64.6484-59.8145C64.6484-59.2285 65.1367-58.6426 65.8691-58.6426L73.584-58.6426L73.584-58.3984L65.5762-48.2422C64.9902-47.4121 64.6484-47.1191 64.6484-46.4355C64.6484-45.5078 65.4297-45.0195 66.3574-45.0195L76.2695-45.0195C77.002-45.0195 77.4902-45.5566 77.4902-46.1914C77.4902-46.7773 77.002-47.3633 76.2695-47.3633Z"/>
  </g>
  <g id="Black-S" transform="matrix(1 0 0 1 2881.72 696)">
   <path d="M72.9492-75.6348L65.2832-75.6348L65.2832-75.8301L74.707-86.9141C75.7812-88.1836 76.1719-89.0137 76.1719-90.4785C76.1719-92.5781 74.6582-94.043 72.4609-94.043L59.1309-94.043C56.7383-94.043 55.3223-92.7734 55.3223-90.7227C55.3223-88.7207 56.8359-87.4023 59.1309-87.4023L66.6016-87.4023L66.6016-87.207L57.373-76.2207C56.2988-74.9512 55.9082-73.9258 55.9082-72.6074C55.9082-70.5078 57.4219-69.0918 59.5703-69.0918L72.9492-69.0918C75.2441-69.0918 76.7578-70.3613 76.7578-72.3633C76.7578-74.4141 75.3418-75.6348 72.9492-75.6348ZM92.9199-59.4727L88.8184-59.4727L88.8184-59.668L94.4824-65.8691C95.5566-66.9434 95.9473-67.9199 95.9473-69.3359C95.9473-71.3379 94.4824-72.7051 92.4316-72.7051L83.3008-72.7051C81.0547-72.7051 79.6875-71.6309 79.6875-69.7754C79.6875-67.9688 81.1035-66.8457 83.3008-66.8457L87.3047-66.8457L87.3047-66.6504L81.9336-60.791C80.8105-59.5703 80.2734-58.3984 80.2734-57.0312C80.2734-55.0293 81.6895-53.7109 83.7402-53.7109L92.9199-53.7109C95.1172-53.7109 96.5332-54.7852 96.5332-56.5918C96.5332-58.3984 95.166-59.4727 92.9199-59.4727ZM46.2402 5.51758C62.3535 5.51758 76.6113-4.44336 82.5195-18.7988C83.7402-21.7773 83.6914-24.1699 82.2266-25.4883C80.8105-26.7578 78.5156-26.9043 76.1719-25.7812C72.9004-24.2188 68.1152-22.9492 63.4766-22.9492C47.1191-22.9492 35.6934-33.9844 35.6934-49.707C35.6934-54.541 36.9629-59.9609 38.8184-64.0625C40.0879-66.8457 39.9414-68.8965 38.7207-70.2637C37.5-71.6797 35.1074-71.8262 32.1777-70.6543C17.2852-64.6973 6.83594-50.0488 6.83594-33.9355C6.83594-11.1328 23.4863 5.51758 46.2402 5.51758ZM74.1211-45.6055L70.5078-45.6055L70.5078-45.8008L75.5371-51.123C76.4648-52.0996 76.8066-52.9785 76.8066-54.248C76.8066-56.0059 75.5371-57.2266 73.6816-57.2266L64.6973-57.2266C62.6953-57.2266 61.5234-56.2012 61.5234-54.4434C61.5234-52.7832 62.793-51.709 64.6973-51.709L68.3105-51.709L68.3105-51.5137L63.5742-46.4844C62.4023-45.2637 62.0605-44.3848 62.0117-43.0664C61.9629-41.3574 63.2324-40.1367 65.0879-40.1367L74.1211-40.1367C76.0742-40.1367 77.3438-41.2109 77.3438-42.8711C77.3438-44.6289 76.1719-45.6055 74.1211-45.6055Z"/>
  </g>
  <g id="Heavy-S" transform="matrix(1 0 0 1 2586.42 696)">
   <path d="M70.2148-75.1465L62.3047-75.1465L62.3047-75.3418L71.582-86.5723C72.6074-87.8418 72.998-88.623 72.998-89.8926C72.998-91.7969 71.6309-93.1152 69.6289-93.1152L56.4453-93.1152C54.2969-93.1152 52.9785-91.9434 52.9785-90.0879C52.9785-88.2324 54.3945-87.0117 56.4453-87.0117L64.0625-87.0117L64.0625-86.8164L54.8828-75.6836C53.8574-74.4141 53.4668-73.4863 53.4668-72.3145C53.4668-70.4102 54.834-69.0918 56.8359-69.0918L70.2148-69.0918C72.2656-69.0918 73.6328-70.2637 73.6328-72.1191C73.6328-74.0234 72.3145-75.1465 70.2148-75.1465ZM89.7949-59.2773L85.3027-59.2773L85.3027-59.4727L91.0645-66.1133C92.041-67.1387 92.4316-68.0664 92.4316-69.3359C92.4316-71.1426 91.0645-72.3633 89.209-72.3633L80.0293-72.3633C78.0273-72.3633 76.7578-71.3379 76.7578-69.6289C76.7578-67.9199 78.0762-66.8945 80.0293-66.8945L84.2773-66.8945L84.2773-66.6992L78.7598-60.3516C77.7344-59.1797 77.2461-58.1543 77.2461-56.8848C77.2461-55.127 78.5156-53.9062 80.3711-53.9062L89.7949-53.9062C91.748-53.9062 93.0664-54.8828 93.0664-56.5918C93.0664-58.3008 91.7969-59.2773 89.7949-59.2773ZM44.873 3.85742C60.4492 3.85742 74.0234-5.41992 79.7363-19.2871C80.8105-21.875 80.7617-24.0234 79.4434-25.1953C78.2227-26.3184 76.2207-26.4648 74.1211-25.4883C70.8984-23.9746 66.3574-22.9004 61.8652-22.9004C45.3125-22.9004 33.9355-33.8867 33.9355-49.8047C33.9355-54.541 35.1074-59.8633 36.8164-63.5742C37.9395-66.0645 37.8418-67.9199 36.7676-69.1406C35.6934-70.4102 33.5449-70.5566 30.957-69.5312C16.6992-63.916 6.83594-49.707 6.83594-34.082C6.83594-12.207 22.9004 3.85742 44.873 3.85742ZM71.3867-45.5566L67.4316-45.5566L67.4316-45.7031L72.5098-51.416C73.3887-52.4414 73.7305-53.2227 73.7305-54.3457C73.7305-56.0059 72.5586-57.0801 70.8496-57.0801L62.0117-57.0801C60.2051-57.0801 59.082-56.1035 59.082-54.4922C59.082-52.9297 60.2539-51.9531 62.0117-51.9531L65.7715-51.9531L65.7715-51.7578L60.9375-46.2891C59.8633-45.1172 59.5215-44.2871 59.5215-43.1152C59.4727-41.5527 60.6445-40.4297 62.3047-40.4297L71.3867-40.4297C73.1445-40.4297 74.2676-41.4551 74.2676-42.9688C74.2676-44.6289 73.1934-45.5566 71.3867-45.5566Z"/>
  </g>
  <g id="Bold-S" transform="matrix(1 0 0 1 2291.3 696)">
   <path d="M67.0898-74.6094L58.9844-74.6094L58.9844-74.8047L68.1152-86.2305C69.0918-87.4023 69.4824-88.1836 69.4824-89.2578C69.4824-90.9668 68.2129-92.0898 66.4062-92.0898L53.418-92.0898C51.5625-92.0898 50.3906-91.0645 50.3906-89.3555C50.3906-87.6465 51.6113-86.5723 53.418-86.5723L61.1816-86.5723L61.1816-86.377L52.0508-75.0488C51.123-73.8281 50.7812-73.0469 50.7812-71.9238C50.7812-70.3125 51.9531-69.1406 53.7109-69.1406L67.0898-69.1406C68.8965-69.1406 70.1172-70.166 70.1172-71.875C70.1172-73.584 68.9453-74.6094 67.0898-74.6094ZM86.2793-59.082L81.3477-59.082L81.3477-59.2773L87.207-66.3574C88.1348-67.4316 88.4766-68.2129 88.4766-69.2871C88.4766-70.8984 87.3047-71.9727 85.5957-71.9727L76.3184-71.9727C74.6094-71.9727 73.4863-70.9961 73.4863-69.4824C73.4863-67.8711 74.6582-66.9434 76.3184-66.9434L80.9082-66.9434L80.9082-66.7969L75.1953-59.8633C74.2676-58.7891 73.8281-57.8613 73.8281-56.7871C73.8281-55.2246 75-54.1016 76.6602-54.1016L86.2793-54.1016C88.0371-54.1016 89.1602-55.0293 89.1602-56.5918C89.1602-58.1543 88.0371-59.082 86.2793-59.082ZM43.3105 1.95312C58.3008 1.95312 71.0938-6.54297 76.6113-19.7754C77.5391-22.0215 77.4414-23.8281 76.3184-24.9023C75.3418-25.8301 73.6328-25.9277 71.875-25.1465C68.6523-23.7305 64.4043-22.8027 60.0586-22.8027C43.3105-22.8027 31.9824-33.7402 31.9824-49.9512C31.9824-54.5898 33.0566-59.7656 34.5703-63.0371C35.5957-65.1367 35.498-66.7969 34.5703-67.8711C33.6426-68.9941 31.8359-69.1406 29.541-68.2617C16.0645-63.0371 6.83594-49.3652 6.83594-34.2285C6.83594-13.3789 22.2656 1.95312 43.3105 1.95312ZM68.3105-45.459L64.0137-45.459L64.0137-45.6543L69.0918-51.8066C69.9707-52.7832 70.2637-53.5156 70.2637-54.4922C70.2637-55.957 69.1895-56.9336 67.6758-56.9336L58.9844-56.9336C57.373-56.9336 56.3965-56.0547 56.3965-54.541C56.3965-53.0762 57.4219-52.1973 58.9844-52.1973L62.9395-52.1973L62.9395-52.002L57.959-46.0449C57.0312-44.9707 56.7383-44.1895 56.6895-43.1641C56.6895-41.7969 57.7148-40.7715 59.2285-40.7715L68.3105-40.7715C69.8242-40.7715 70.8496-41.6992 70.8496-43.1152C70.8496-44.5801 69.873-45.459 68.3105-45.459Z"/>
  </g>
  <g id="Semibold-S" transform="matrix(1 0 0 1 1995.66 696)">
   <path d="M64.9902-74.2188L56.6895-74.2188L56.6895-74.4141L65.7227-85.9375C66.6504-87.1094 66.9922-87.8906 66.9922-88.8184C66.9922-90.3809 65.8691-91.4062 64.209-91.4062L51.3184-91.4062C49.707-91.4062 48.584-90.4297 48.584-88.8672C48.584-87.2559 49.707-86.2793 51.3184-86.2793L59.1797-86.2793L59.1797-86.084L50.1465-74.6094C49.2188-73.4375 48.877-72.7051 48.877-71.6797C48.877-70.2148 50-69.1406 51.6113-69.1406L64.9902-69.1406C66.6016-69.1406 67.7246-70.1172 67.7246-71.7285C67.7246-73.2422 66.6016-74.2188 64.9902-74.2188ZM83.8867-58.9355L78.6621-58.9355L78.6621-59.1309L84.5703-66.5039C85.4492-67.5781 85.791-68.3594 85.791-69.2871C85.791-70.752 84.668-71.6797 83.1543-71.6797L73.7793-71.6797C72.2656-71.6797 71.2402-70.8008 71.2402-69.3848C71.2402-67.8711 72.2656-66.9922 73.7793-66.9922L78.5645-66.9922L78.5645-66.7969L72.7539-59.5703C71.875-58.4961 71.4844-57.666 71.4844-56.6406C71.4844-55.2734 72.5586-54.2969 74.0723-54.2969L83.8867-54.2969C85.4492-54.2969 86.4746-55.127 86.4746-56.5918C86.4746-58.0566 85.4492-58.9355 83.8867-58.9355ZM42.2363 0.683594C56.8359 0.683594 69.0918-7.27539 74.4629-20.166C75.2441-22.1191 75.1953-23.7305 74.2188-24.6582C73.3398-25.4883 71.8262-25.5859 70.2637-24.9023C67.0898-23.5352 63.0859-22.7539 58.8379-22.7539C41.8945-22.7539 30.6641-33.6426 30.6641-50C30.6641-54.5898 31.6406-59.7168 33.0566-62.6465C33.9355-64.5508 33.8867-66.0156 33.0566-66.9922C32.2266-68.0176 30.6152-68.1152 28.6133-67.3828C15.625-62.4023 6.83594-49.1211 6.83594-34.3262C6.83594-14.209 21.7773 0.683594 42.2363 0.683594ZM66.1621-45.4102L61.6211-45.4102L61.6211-45.5566L66.748-52.0508C67.5781-53.0762 67.8711-53.7109 67.8711-54.5898C67.8711-55.957 66.8457-56.8359 65.4785-56.8359L56.8848-56.8359C55.4688-56.8359 54.4922-55.957 54.4922-54.5898C54.4922-53.2227 55.5176-52.3926 56.8848-52.3926L60.9375-52.3926L60.9375-52.1973L55.957-45.8984C55.0781-44.8242 54.7852-44.1406 54.7363-43.2129C54.7363-41.9434 55.7129-41.0156 57.1289-41.0156L66.1621-41.0156C67.5781-41.0156 68.5059-41.8457 68.5059-43.2129C68.5059-44.5801 67.5781-45.4102 66.1621-45.4102Z"/>
  </g>
  <g id="Medium-S" transform="matrix(1 0 0 1 1699.78 696)">
   <path d="M63.3789-73.9258L54.9805-73.9258L54.9805-74.1211L63.916-85.7422C64.7949-86.9141 65.1855-87.6465 65.1855-88.5254C65.1855-89.9414 64.0625-90.8691 62.5488-90.8691L49.7559-90.8691C48.291-90.8691 47.2656-89.9414 47.2656-88.4766C47.2656-86.9629 48.291-86.084 49.7559-86.084L57.7148-86.084L57.7148-85.8887L48.6816-74.3164C47.7539-73.1445 47.4609-72.4609 47.4609-71.5332C47.4609-70.166 48.4863-69.1406 50-69.1406L63.3789-69.1406C64.8438-69.1406 65.8691-70.0684 65.8691-71.582C65.8691-73.0469 64.8438-73.9258 63.3789-73.9258ZM82.0801-58.8379L76.5625-58.8379L76.5625-58.9844L82.5684-66.6504C83.3984-67.7246 83.7402-68.4082 83.7402-69.2871C83.7402-70.6055 82.666-71.4844 81.25-71.4844L71.875-71.4844C70.5078-71.4844 69.5312-70.6055 69.5312-69.2871C69.5312-67.8223 70.5078-66.9922 71.875-66.9922L76.8066-66.9922L76.8066-66.8457L70.8984-59.2773C70.0684-58.252 69.7266-57.5195 69.7266-56.5918C69.7266-55.3223 70.7031-54.3945 72.1191-54.3945L82.0801-54.3945C83.4473-54.3945 84.4238-55.2246 84.4238-56.6406C84.4238-58.0078 83.4961-58.8379 82.0801-58.8379ZM41.4062-0.292969C55.7129-0.292969 67.5781-7.86133 72.8027-20.459C73.5352-22.168 73.4863-23.6328 72.5586-24.5117C71.8262-25.1953 70.5078-25.293 69.0918-24.707C65.918-23.3887 62.0605-22.7051 57.9102-22.7051C40.8691-22.7051 29.6387-33.5938 29.6387-50.0977C29.6387-54.5898 30.5664-59.668 31.8848-62.4023C32.7148-64.0625 32.666-65.4785 31.9336-66.3086C31.1523-67.2363 29.7363-67.3828 27.8809-66.6992C15.2832-61.9629 6.83594-48.9258 6.83594-34.375C6.83594-14.8438 21.4355-0.292969 41.4062-0.292969ZM64.5508-45.3613L59.8145-45.3613L59.8145-45.5566L64.9902-52.2461C65.7715-53.2715 66.0645-53.9062 66.0645-54.6875C66.0645-55.9082 65.0879-56.7383 63.8184-56.7383L55.2734-56.7383C54.0039-56.7383 53.0762-55.9082 53.0762-54.6387C53.0762-53.2715 54.0039-52.4902 55.2734-52.4902L59.4727-52.4902L59.4727-52.3438L54.3945-45.752C53.6133-44.7266 53.3203-44.0918 53.2715-43.2129C53.2715-42.041 54.1992-41.1621 55.5176-41.1621L64.5508-41.1621C65.8203-41.1621 66.748-41.9922 66.748-43.3105C66.748-44.5801 65.8691-45.3613 64.5508-45.3613Z"/>
  </g>
  <g id="Regular-S" transform="matrix(1 0 0 1 1404.14 696)">
   <path d="M61.2793-73.584L52.6855-73.584L52.6855-73.7793L61.5723-85.498C62.4023-86.6211 62.7441-87.3535 62.7441-88.0859C62.7441-89.3555 61.7188-90.1855 60.3516-90.1855L47.7051-90.1855C46.4355-90.1855 45.459-89.3066 45.459-87.9883C45.459-86.5723 46.4355-85.7422 47.7051-85.7422L55.7617-85.7422L55.7617-85.5469L46.7773-73.877C45.8984-72.7539 45.6055-72.1191 45.6055-71.2891C45.6055-70.0684 46.5332-69.1895 47.9004-69.1895L61.2793-69.1895C62.5488-69.1895 63.5254-69.9707 63.5254-71.3867C63.5254-72.7051 62.5488-73.584 61.2793-73.584ZM79.6875-58.6914L73.877-58.6914L73.877-58.8379L79.9316-66.8457C80.7129-67.8711 81.0547-68.5547 81.0547-69.2383C81.0547-70.459 80.0781-71.1914 78.8086-71.1914L69.3848-71.1914C68.1641-71.1914 67.2852-70.4102 67.2852-69.1895C67.2852-67.8223 68.1641-67.041 69.3848-67.041L74.4629-67.041L74.4629-66.8945L68.457-58.9844C67.7246-57.959 67.4316-57.3242 67.4316-56.4941C67.4316-55.3711 68.2617-54.541 69.5801-54.541L79.6875-54.541C80.9082-54.541 81.7383-55.3223 81.7383-56.6406C81.7383-57.9102 80.9082-58.6914 79.6875-58.6914ZM40.3809-1.61133C54.248-1.61133 65.5762-8.64258 70.7031-20.8008C71.2891-22.2656 71.2402-23.5352 70.459-24.2676C69.873-24.8535 68.75-24.9512 67.5293-24.4629C64.3555-23.1934 60.6934-22.6562 56.6895-22.6562C39.502-22.6562 28.3203-33.4961 28.3203-50.1465C28.3203-54.6387 29.1504-59.6191 30.3711-62.0117C31.1035-63.4766 31.0547-64.6973 30.4688-65.4785C29.7852-66.2598 28.5156-66.4062 26.9531-65.8203C14.8438-61.3281 6.83594-48.6816 6.83594-34.5215C6.83594-15.625 20.9961-1.61133 40.3809-1.61133ZM62.4512-45.3125L57.4707-45.3125L57.4707-45.459L62.6953-52.4414C63.4277-53.5156 63.7207-54.1016 63.7207-54.7363C63.7207-55.9082 62.8418-56.6406 61.6211-56.6406L53.2227-56.6406C52.0996-56.6406 51.2207-55.8594 51.2207-54.6875C51.2207-53.418 52.0996-52.6855 53.2227-52.6855L57.5195-52.6855L57.5195-52.5391L52.3926-45.6055C51.6602-44.6289 51.3672-44.043 51.3672-43.2617C51.3672-42.1875 52.1973-41.4062 53.3691-41.4062L62.4512-41.4062C63.5742-41.4062 64.4043-42.1387 64.4043-43.3594C64.4043-44.5801 63.5742-45.3125 62.4512-45.3125Z"/>
  </g>
  <g id="Light-S" transform="matrix(1 0 0 1 1108.6 696)">
   <path d="M60.6934-72.4121L51.9043-72.4121L51.9043-72.6074L60.8398-84.375C61.6211-85.3516 61.9141-85.9375 61.9141-86.5723C61.9141-87.6953 61.0352-88.3789 59.8633-88.3789L47.9004-88.3789C46.875-88.3789 46.0938-87.6465 46.0938-86.5723C46.0938-85.498 46.875-84.7656 47.9004-84.7656L56.25-84.7656L56.25-84.5703L47.2168-72.8516C46.4355-71.875 46.1914-71.3867 46.1914-70.6055C46.1914-69.5801 46.9727-68.8477 48.1445-68.8477L60.6934-68.8477C61.7676-68.8477 62.5488-69.5312 62.5488-70.6543C62.5488-71.6797 61.7676-72.4121 60.6934-72.4121ZM78.2227-57.959L71.7773-57.959L71.7773-58.1055L78.3691-66.6992C79.0527-67.627 79.3457-68.1641 79.3457-68.7988C79.3457-69.873 78.5156-70.5078 77.3926-70.5078L68.1152-70.5078C67.1387-70.5078 66.3574-69.8242 66.3574-68.8477C66.3574-67.7246 67.1387-67.0898 68.1152-67.0898L73.9746-67.0898L73.9746-66.8945L67.4316-58.3496C66.748-57.4707 66.4551-56.9336 66.4551-56.2012C66.4551-55.2246 67.2363-54.541 68.3594-54.541L78.2227-54.541C79.248-54.541 79.9316-55.1758 79.9316-56.25C79.9316-57.2754 79.248-57.959 78.2227-57.959ZM39.4531-2.34375C53.2227-2.34375 64.4043-9.08203 69.4824-20.8008C70.0195-22.0703 69.9707-23.1445 69.3359-23.8281C68.7988-24.3652 67.8223-24.4629 66.6992-24.0234C63.5254-22.8027 59.9609-22.168 55.7129-22.168C38.2812-22.168 27.0508-33.0078 27.0508-50.293C27.0508-54.541 27.832-59.2285 29.1992-62.0605C29.834-63.3301 29.834-64.4531 29.248-65.1367C28.6133-65.8203 27.4902-65.918 26.0254-65.332C14.5508-60.5469 6.83594-48.5352 6.83594-34.668C6.83594-16.2598 20.2148-2.34375 39.4531-2.34375ZM61.6211-45.1172L56.2012-45.1172L56.2012-45.3125L61.7188-52.5879C62.4023-53.5156 62.6953-54.0039 62.6953-54.5898C62.6953-55.6152 61.8652-56.25 60.8398-56.25L52.7344-56.25C51.7578-56.25 51.0742-55.5664 51.0742-54.6387C51.0742-53.6133 51.7578-52.9785 52.7344-52.9785L57.5684-52.9785L57.5684-52.7832L52.0996-45.5566C51.416-44.6777 51.1719-44.1895 51.1719-43.5059C51.1719-42.5293 51.9043-41.8457 52.9297-41.8457L61.6211-41.8457C62.5977-41.8457 63.2324-42.5293 63.2324-43.5059C63.2324-44.4824 62.5977-45.1172 61.6211-45.1172Z"/>
  </g>
  <g id="Thin-S" transform="matrix(1 0 0 1 813.453 696)">
   <path d="M59.9609-70.8984L50.8301-70.8984L50.8301-71.0938L59.9609-82.9102C60.5469-83.6426 60.791-84.0332 60.791-84.6191C60.791-85.498 60.1074-86.0352 59.2285-86.0352L48.1934-86.0352C47.4609-86.0352 46.9238-85.4492 46.9238-84.7656C46.9238-84.0332 47.4609-83.4961 48.1934-83.4961L56.9336-83.4961L56.9336-83.3008L47.8027-71.4844C47.2168-70.752 46.9238-70.3613 46.9238-69.7266C46.9238-68.8965 47.6074-68.3594 48.5352-68.3594L59.9609-68.3594C60.7422-68.3594 61.2793-68.8965 61.2793-69.6289C61.2793-70.3613 60.7422-70.8984 59.9609-70.8984ZM76.2695-56.9824L68.9453-56.9824L68.9453-57.1777L76.2695-66.5527C76.8555-67.2852 77.0996-67.6758 77.0996-68.2617C77.0996-69.0918 76.416-69.5801 75.5371-69.5801L66.4551-69.5801C65.7227-69.5801 65.1855-69.043 65.1855-68.3594C65.1855-67.627 65.7227-67.0898 66.4551-67.0898L73.3398-67.0898L73.3398-66.9434L66.0645-57.5684C65.4785-56.8359 65.2344-56.4453 65.2344-55.8594C65.2344-55.0293 65.918-54.4922 66.7969-54.4922L76.2695-54.4922C77.0508-54.4922 77.5391-55.0293 77.5391-55.7617C77.5391-56.4453 77.0508-56.9824 76.2695-56.9824ZM38.2812-3.27148C51.9043-3.27148 62.8418-9.66797 67.9199-20.752C68.3594-21.7773 68.3105-22.6562 67.8223-23.1934C67.3828-23.6816 66.6016-23.8281 65.5762-23.4375C62.4512-22.2168 58.9844-21.5332 54.4434-21.5332C36.6699-21.5332 25.4395-32.3242 25.4395-50.4395C25.4395-54.3945 26.123-58.7402 27.7344-62.1094C28.2227-63.1836 28.1738-64.1113 27.6367-64.6484C27.0996-65.2344 26.123-65.2832 24.8535-64.6973C14.209-59.4727 6.83594-48.3398 6.83594-34.8145C6.83594-17.0898 19.1406-3.27148 38.2812-3.27148ZM60.498-44.873L54.4922-44.873L54.4922-45.0684L60.498-52.7832C61.0352-53.4668 61.3281-53.8574 61.3281-54.4434C61.3281-55.2734 60.6445-55.7617 59.8145-55.7617L52.0996-55.7617C51.3672-55.7617 50.8301-55.2246 50.8301-54.541C50.8301-53.8574 51.3672-53.3203 52.0996-53.3203L57.6172-53.3203L57.6172-53.125L51.6602-45.459C51.123-44.7266 50.8789-44.3848 50.8789-43.7988C50.8789-42.9688 51.5137-42.4805 52.3926-42.4805L60.498-42.4805C61.2305-42.4805 61.7676-43.0176 61.7676-43.7012C61.7676-44.3848 61.2305-44.873 60.498-44.873Z"/>
  </g>
  <g id="Ultralight-S" transform="matrix(1 0 0 1 517.548 696)">
   <path d="M59.5703-70.1172L50.293-70.1172L50.293-70.3125L59.4727-82.1777C60.0098-82.7637 60.2539-83.1055 60.2539-83.6426C60.2539-84.375 59.6191-84.8145 58.8867-84.8145L48.3398-84.8145C47.7539-84.8145 47.3145-84.3262 47.3145-83.7891C47.3145-83.3008 47.7539-82.8125 48.3398-82.8125L57.2266-82.8125L57.2266-82.6172L48.0957-70.752C47.5586-70.166 47.3145-69.8242 47.3145-69.2871C47.3145-68.5547 47.9492-68.1152 48.6816-68.1152L59.5703-68.1152C60.2051-68.1152 60.5957-68.5547 60.5957-69.0918C60.5957-69.6289 60.2051-70.1172 59.5703-70.1172ZM75.293-56.4453L67.5293-56.4453L67.5293-56.6406L75.1953-66.4551C75.6836-67.0898 75.9277-67.3828 75.9277-67.9199C75.9277-68.7012 75.3418-69.0918 74.6094-69.0918L65.625-69.0918C64.9902-69.0918 64.5996-68.6523 64.5996-68.1152C64.5996-67.5781 64.9902-67.1387 65.625-67.1387L72.998-67.1387L72.998-66.9434L65.332-57.1289C64.8438-56.543 64.5996-56.2012 64.5996-55.6641C64.5996-54.9316 65.1855-54.4922 65.9668-54.4922L75.293-54.4922C75.8789-54.4922 76.3184-54.9316 76.3184-55.4688C76.3184-56.0059 75.8789-56.4453 75.293-56.4453ZM37.6953-3.80859C51.1719-3.80859 62.0605-10.0098 67.0898-20.752C67.4805-21.6309 67.4805-22.4121 67.0898-22.8516C66.6504-23.3398 65.9668-23.4863 65.0391-23.0957C61.9141-21.9238 58.4473-21.1914 53.7598-21.1914C35.8398-21.1914 24.6094-31.9824 24.6094-50.5371C24.6094-54.2969 25.1953-58.4961 26.9531-62.1582C27.3926-63.0859 27.2949-63.916 26.8066-64.4043C26.3184-64.8926 25.3906-64.9902 24.2188-64.3555C14.0137-58.9355 6.83594-48.2422 6.83594-34.9609C6.83594-17.5293 18.6035-3.80859 37.6953-3.80859ZM59.9609-44.7754L53.6133-44.7754L53.6133-44.9707L59.8633-52.8809C60.3027-53.4668 60.5957-53.7598 60.5957-54.2969C60.5957-55.0781 60.0098-55.4688 59.2773-55.4688L51.7578-55.4688C51.123-55.4688 50.7324-55.0293 50.7324-54.4922C50.7324-53.9551 51.123-53.5156 51.7578-53.5156L57.666-53.5156L57.666-53.3203L51.4648-45.4102C50.9766-44.7754 50.7324-44.4824 50.7324-43.9453C50.7324-43.2129 51.3184-42.8223 52.0508-42.8223L59.9609-42.8223C60.5469-42.8223 60.9863-43.2617 60.9863-43.7988C60.9863-44.2871 60.5469-44.7754 59.9609-44.7754Z"/>
  </g>
 </g>
</svg>
